<svg width="23" height="22" viewBox="0 0 23 22" fill="none" xmlns="http://www.w3.org/2000/svg">
<path d="M20.0302 4.68723L18.4605 3.1878C18.2984 3.03277 18.0853 2.95508 17.8725 2.95508C17.6598 2.95508 17.447 3.03242 17.285 3.18745L16.0293 4.38508L18.7746 7.00652L20.0302 5.80923C20.3547 5.49917 20.3547 4.99627 20.0302 4.68723Z" fill="black"/>
<path d="M7.87891 12.1671L10.6245 14.7889L18.1876 7.56807L15.442 4.94629L7.87891 12.1671Z" fill="black"/>
<path d="M7.28536 12.7285L6.69922 15.9089L10.031 15.35L7.28536 12.7285Z" fill="black"/>
<path d="M14.876 17.3259H4.5238V7.42383H11.8295L13.63 5.70508H3.88878C3.24945 5.70508 2.72656 6.20523 2.72656 6.81677V17.9333C2.72656 18.5448 3.24945 19.045 3.88878 19.045H15.5106C16.1499 19.045 16.6728 18.5448 16.6728 17.9333V9.98545L14.876 11.7011V17.3259Z" fill="black"/>
</svg>
