<svg width="452" height="425" viewBox="0 0 452 425" fill="none" xmlns="http://www.w3.org/2000/svg">
<g clip-path="url(#clip0_241_141)">
<path d="M452 212.5C452.047 242.102 446.09 271.385 434.514 298.454C434.141 299.328 433.762 300.197 433.378 301.061C433.189 301.496 432.994 301.925 432.8 302.359C432.605 302.789 432.411 303.223 432.211 303.652C431.955 304.209 431.699 304.76 431.438 305.311C431.115 306.005 430.788 306.694 430.45 307.383C430.409 307.479 430.363 307.574 430.312 307.669C430.03 308.252 429.749 308.835 429.457 309.418C429.396 309.545 429.334 309.672 429.268 309.794C428.935 310.473 428.592 311.151 428.244 311.824V311.829C427.875 312.545 427.505 313.258 427.133 313.97C426.212 315.729 425.265 317.473 424.292 319.2C424 319.714 423.714 320.229 423.417 320.737C423.146 321.214 422.874 321.686 422.598 322.157C422.408 322.486 422.219 322.809 422.025 323.133C421.717 323.657 421.405 324.182 421.088 324.706C421.083 324.712 421.083 324.712 421.083 324.717C420.381 325.883 419.665 327.043 418.943 328.193H418.938C418.605 328.729 418.267 329.258 417.93 329.788V329.794C416.911 331.383 415.872 332.957 414.812 334.515V334.521C414.808 334.521 414.805 334.523 414.802 334.526V334.531L414.792 334.542C413.952 335.787 413.096 337.022 412.222 338.246V338.251C411.664 339.036 411.101 339.82 410.533 340.594C410.067 341.229 409.596 341.864 409.12 342.496C409.023 342.634 408.921 342.766 408.813 342.904V342.909C408.685 343.084 408.557 343.254 408.419 343.429V343.434C406.397 346.11 404.314 348.733 402.169 351.303H402.164C402.051 351.446 401.933 351.584 401.816 351.722C401.703 351.86 401.58 351.998 401.462 352.141H401.457C401.278 352.358 401.094 352.575 400.91 352.792C400.731 353.01 400.541 353.227 400.352 353.444V353.45C389.172 366.508 376.485 378.094 362.575 387.948C360.722 389.267 358.845 390.551 356.945 391.8C356.474 392.113 356.003 392.42 355.527 392.728C355.383 392.828 355.24 392.918 355.097 393.008C354.846 393.173 354.59 393.337 354.334 393.501C354.083 393.66 353.827 393.825 353.571 393.983C352.553 394.63 351.524 395.266 350.495 395.891C350.239 396.05 349.978 396.204 349.717 396.363C349.461 396.517 349.2 396.67 348.939 396.824C348.936 396.829 348.931 396.834 348.926 396.838C348.92 396.841 348.914 396.844 348.908 396.845L348.898 396.85L348.888 396.861H348.883C347.593 397.629 346.298 398.387 344.987 399.118C342.643 400.443 340.275 401.72 337.882 402.95C337.289 403.257 336.69 403.559 336.091 403.861C335.594 404.11 335.093 404.359 334.596 404.603C334.458 404.672 334.325 404.741 334.187 404.805C333.772 405.006 333.357 405.207 332.943 405.403C332.492 405.626 332.037 405.838 331.586 406.05C331.08 406.288 330.578 406.522 330.071 406.755C328.167 407.634 326.242 408.482 324.313 409.298C317.419 412.221 310.373 414.744 303.208 416.855C302.875 416.956 302.537 417.056 302.2 417.152C299.133 418.042 296.045 418.856 292.935 419.595C287.504 420.888 282.023 421.949 276.493 422.78C276.483 422.78 276.468 422.785 276.457 422.785C275.797 422.886 275.132 422.981 274.471 423.076C274.415 423.087 274.354 423.098 274.292 423.103C274.287 423.108 274.282 423.108 274.272 423.103C274.272 423.103 274.272 423.108 274.267 423.103C273.535 423.204 272.803 423.304 272.066 423.4C272.014 423.41 271.963 423.416 271.912 423.421C271.226 423.506 270.535 423.59 269.844 423.67C269.102 423.755 268.36 423.834 267.612 423.914C267.044 423.972 266.476 424.03 265.908 424.083C265.857 424.094 265.806 424.099 265.754 424.099C265.237 424.147 264.72 424.195 264.203 424.237C264.183 424.237 264.157 424.242 264.137 424.242C263.686 424.285 263.236 424.316 262.785 424.354C257.487 424.788 252.138 425.004 246.738 425C240.877 425 235.076 424.747 229.334 424.242C229.314 424.242 229.293 424.237 229.273 424.237C228.049 424.131 226.828 424.014 225.608 423.887C225.285 423.855 224.968 423.818 224.645 423.787C224.584 423.781 224.522 423.776 224.461 423.765C224.364 423.755 224.267 423.744 224.164 423.733C224.113 423.728 224.057 423.723 224.005 423.712C223.581 423.665 223.156 423.617 222.726 423.564C222.25 423.506 221.769 423.447 221.293 423.384C220.817 423.325 220.335 423.262 219.859 423.193C219.757 423.182 219.649 423.172 219.547 423.151C219.199 423.108 218.851 423.06 218.508 423.008C218.339 422.986 218.175 422.96 218.011 422.933C217.679 422.886 217.351 422.838 217.018 422.785C217.008 422.785 216.993 422.78 216.983 422.78C206.53 421.217 196.211 418.809 186.122 415.578H186.116C185.569 415.403 185.021 415.223 184.473 415.043C184.31 414.995 184.146 414.942 183.982 414.884C182.559 414.412 181.144 413.925 179.738 413.421C177.798 412.732 175.872 412.012 173.959 411.259C173.437 411.052 172.92 410.846 172.398 410.639C171.359 410.215 170.325 409.791 169.296 409.357C167.54 408.615 165.797 407.85 164.065 407.062H164.06V407.057C162.442 406.32 160.837 405.561 159.243 404.778C159.196 404.764 159.151 404.742 159.11 404.714C159.105 404.714 159.105 404.709 159.1 404.709C158.746 404.54 158.393 404.365 158.04 404.19L158.03 404.185C149.25 399.828 140.784 394.823 132.697 389.209C130.102 387.412 127.551 385.556 125.045 383.639C123.023 382.097 121.03 380.516 119.066 378.897C109.283 370.847 100.23 361.892 92.0183 352.141H92.0132V352.135C91.4348 351.452 90.8717 350.773 90.2984 350.085V350.079C90.2165 349.984 90.1398 349.888 90.063 349.793C89.6996 349.353 89.3463 348.919 88.9932 348.474V348.468C88.512 347.88 88.0411 347.29 87.5804 346.698C87.478 346.571 87.3807 346.449 87.2835 346.322H87.2784V346.317C86.8996 345.84 86.5259 345.358 86.1574 344.875C85.968 344.637 85.7837 344.393 85.5994 344.149H85.5943V344.144C84.4784 342.687 83.3847 341.215 82.3132 339.73V339.724C82.0163 339.316 81.7245 338.908 81.4379 338.495H81.4328C80.0609 336.577 78.725 334.635 77.4248 332.671V332.666C76.9334 331.929 76.4471 331.187 75.9659 330.44C75.4848 329.693 75.0087 328.944 74.5378 328.193H74.5327C74.0464 327.42 73.5653 326.642 73.0892 325.862C73.0636 325.819 73.038 325.782 73.0176 325.745C72.5466 324.977 72.0825 324.203 71.6253 323.424C71.2567 322.804 70.8933 322.189 70.5401 321.569C70.2944 321.151 70.0538 320.737 69.8183 320.313C69.7313 320.17 69.6545 320.027 69.5778 319.889C69.0352 318.93 68.5028 317.971 67.9705 317.007C67.3511 315.873 66.7369 314.728 66.138 313.583C65.8923 313.112 65.6466 312.635 65.406 312.158C65.319 312.004 65.2422 311.85 65.1654 311.691C64.8787 311.13 64.5921 310.568 64.3106 310.001C64.029 309.439 63.7475 308.872 63.4711 308.305C63.1947 307.738 62.9183 307.171 62.647 306.599C62.4422 306.17 62.2375 305.735 62.0378 305.306C62.0171 305.27 61.9983 305.233 61.9815 305.195C61.8894 304.993 61.7921 304.797 61.7051 304.596C61.6847 304.565 61.6691 304.531 61.659 304.495C61.4492 304.05 61.2444 303.61 61.0448 303.165C60.7786 302.593 60.5227 302.015 60.2667 301.437C60.0825 301.035 59.9084 300.627 59.7293 300.219C59.4733 299.646 59.2225 299.069 58.9768 298.486C58.7158 297.887 58.4649 297.283 58.2141 296.679C58.1476 296.525 58.0861 296.377 58.0247 296.223C57.907 295.947 57.7944 295.672 57.6817 295.396C57.3797 294.665 57.0829 293.923 56.7911 293.186C56.4584 292.354 56.1342 291.521 55.8185 290.685C55.5165 289.906 55.223 289.125 54.9381 288.343L54.8306 288.057V288.051C50.3829 275.95 47.0177 263.451 44.7774 250.713V250.708C43.4999 243.435 42.591 236.098 42.0542 228.726C42.0235 228.324 41.9979 227.921 41.9723 227.518C41.6345 222.531 41.469 217.525 41.4758 212.5C41.4758 210.269 41.5099 208.049 41.5782 205.839C42.9053 159.639 58.8132 115.162 86.8689 79.2079C88.1025 77.6235 89.3584 76.0584 90.6363 74.5128C128.28 28.9074 184.248 0 246.738 0C319.798 0 383.946 39.5165 420.315 99.0324C422.209 102.117 424.021 105.257 425.751 108.454C443.014 140.215 452.056 176.056 452 212.5Z" fill="#F2F2F2"/>
<path d="M346.134 379.294C345.397 381.403 344.662 383.512 343.928 385.621C343.79 386.024 343.647 386.422 343.509 386.824C341.635 392.198 339.76 397.573 337.883 402.95C337.289 403.257 336.69 403.559 336.091 403.861C335.595 404.111 335.093 404.36 334.597 404.603C334.459 404.672 334.326 404.741 334.187 404.805C333.773 405.006 333.358 405.208 332.943 405.404C332.493 405.626 332.037 405.838 331.587 406.05C331.08 406.289 330.579 406.522 330.072 406.755C329.808 406.045 329.658 405.295 329.627 404.535C329.605 403.341 329.741 402.15 330.031 400.995C330.476 399.087 331.183 397.216 331.648 395.303C331.674 395.213 331.694 395.118 331.715 395.028C332.753 390.46 332.274 385.664 330.353 381.414C329.196 378.881 327.538 376.576 326.816 373.873C326.189 371.335 326.467 368.648 327.599 366.306C328.02 365.397 328.548 364.546 329.171 363.773C329.319 363.577 329.478 363.391 329.642 363.206C331.147 361.493 333.148 360.332 335.344 359.894C339.547 359.12 343.939 361.436 346.288 365.071C347.251 366.532 347.838 368.222 347.993 369.983C348.249 373.168 347.184 376.289 346.134 379.294Z" fill="#E4E4E4"/>
<path d="M334.529 400.82C333.566 398.981 331.954 397.37 331.647 395.303C330.649 388.668 328.243 383.91 324.255 381.212C323.098 380.433 322.914 378.711 322.203 377.471C321.885 376.915 321.563 376.358 321.23 375.812C320.693 374.906 320.133 374.018 319.551 373.147C318.448 371.464 317.232 369.863 315.912 368.356C315.364 367.726 314.786 367.116 314.187 366.539L314.182 366.533C313.808 366.162 313.429 365.807 313.035 365.463C312.881 365.325 312.723 365.187 312.559 365.05L312.549 365.039C311.857 364.418 311.133 363.838 310.378 363.301C308.643 362.087 306.683 361.245 304.671 361.918C303.88 362.198 303.119 362.56 302.398 362.999C302.03 363.216 301.666 363.444 301.303 363.672C301.057 363.826 300.811 363.979 300.566 364.138C300.366 364.26 300.166 364.382 299.967 364.499C298.421 365.421 296.868 366.325 295.309 367.212C295.084 367.344 294.858 367.471 294.628 367.599H294.623C294.464 367.694 294.3 367.784 294.137 367.874C293.824 368.054 293.507 368.234 293.195 368.409C292.258 368.934 291.32 369.453 290.379 369.967C289.898 370.232 289.412 370.487 288.926 370.741C288.7 370.858 288.475 370.974 288.255 371.096H288.25C288.168 371.138 288.091 371.181 288.009 371.223C287.344 371.578 286.689 371.944 286.054 372.341C284.213 373.489 282.613 375.009 281.35 376.809C281.104 377.158 280.869 377.519 280.654 377.89C280.372 378.369 280.116 378.865 279.886 379.374C279.727 379.718 279.579 380.062 279.446 380.412V380.417C278.187 383.767 278.011 387.448 278.944 390.91V390.915C279.005 391.154 279.072 391.387 279.149 391.62C279.272 392.012 279.41 392.404 279.563 392.786C279.733 393.211 279.924 393.627 280.137 394.031V394.037C281.276 396.048 282.697 397.873 284.355 399.452L284.406 399.505C284.611 399.712 284.82 399.924 285.025 400.131C285.138 400.242 285.255 400.353 285.378 400.459C287.149 402.033 290.011 403.225 291.628 404.842C292.493 405.705 293 406.686 292.801 407.91C292.268 411.158 292.386 413.262 292.928 414.614C294.403 418.302 299.03 416.426 302.199 417.152C302.536 417.056 302.874 416.956 303.207 416.855C310.372 414.744 317.418 412.221 324.312 409.298C326.241 408.482 328.166 407.634 330.07 406.755C330.577 406.522 331.079 406.288 331.585 406.05C332.036 405.838 332.491 405.626 332.942 405.403C333.356 405.207 333.771 405.006 334.186 404.805C334.324 404.741 334.457 404.672 334.595 404.603C335.092 404.359 335.593 404.11 336.09 403.861C335.583 402.839 335.056 401.826 334.529 400.82Z" fill="#E4E4E4"/>
<path d="M297.078 349.372C298.153 346.008 296.674 343.788 292.867 342.61C292.737 342.488 292.579 342.402 292.409 342.359C292.238 342.317 292.06 342.319 291.89 342.366C291.721 342.413 291.565 342.504 291.438 342.629C291.311 342.754 291.216 342.911 291.163 343.084L287.839 353.28C284.362 352.359 281.812 352.99 281.258 356.55C282.63 352.924 281.34 350.649 277.479 349.679C277.354 349.549 277.199 349.455 277.029 349.404C276.858 349.353 276.679 349.348 276.506 349.389C276.333 349.429 276.173 349.514 276.041 349.636C275.909 349.758 275.808 349.912 275.749 350.085L273.563 359.268C270.901 363.42 269.593 368.345 269.833 373.322C270.072 378.299 271.845 383.066 274.892 386.924C277.939 390.781 282.099 393.527 286.764 394.758C291.428 395.989 296.35 395.641 300.809 393.764C305.269 391.887 309.03 388.581 311.541 384.33C314.053 380.079 315.183 375.107 314.765 370.142C314.348 365.178 312.405 360.482 309.222 356.744C306.039 353.006 301.783 350.422 297.078 349.372H297.078Z" fill="#E4E4E4"/>
<path d="M294.963 378.43C294.513 378.679 293.987 378.733 293.499 378.581C293.011 378.429 292.602 378.082 292.36 377.618C292.326 377.551 292.319 377.473 292.34 377.401C292.361 377.329 292.409 377.269 292.473 377.234C292.537 377.198 292.612 377.19 292.682 377.212C292.751 377.233 292.81 377.283 292.844 377.349C293.017 377.68 293.309 377.927 293.658 378.036C294.006 378.144 294.382 378.105 294.702 377.927C295.023 377.749 295.262 377.447 295.367 377.086C295.472 376.726 295.435 376.337 295.264 376.005C295.229 375.938 295.222 375.861 295.243 375.789C295.264 375.717 295.312 375.656 295.376 375.621C295.44 375.585 295.515 375.577 295.585 375.599C295.654 375.62 295.713 375.67 295.747 375.736C295.988 376.201 296.04 376.746 295.893 377.251C295.746 377.756 295.411 378.18 294.963 378.43Z" fill="white"/>
<path d="M292.951 374.249C294.02 373.655 294.708 372.829 294.487 372.403C294.267 371.978 293.221 372.114 292.152 372.708C291.083 373.302 290.396 374.128 290.616 374.554C290.837 374.98 291.882 374.843 292.951 374.249Z" fill="white"/>
<path d="M281.59 374.971C281.734 374.245 282.031 373.561 282.459 372.967C282.887 372.373 283.435 371.884 284.066 371.533C284.697 371.183 285.394 370.98 286.109 370.939C286.823 370.899 287.538 371.021 288.202 371.297C288.536 370.24 288.56 369.104 288.27 368.032C287.98 366.961 287.39 366.002 286.574 365.278C285.758 364.554 284.753 364.097 283.686 363.964C282.619 363.831 281.538 364.028 280.58 364.532C279.621 365.035 278.828 365.821 278.302 366.791C277.775 367.76 277.537 368.87 277.619 369.979C277.702 371.088 278.1 372.148 278.764 373.023C279.427 373.898 280.327 374.549 281.348 374.895C281.428 374.922 281.508 374.947 281.59 374.971Z" fill="white"/>
<path d="M283.213 372.928C284.245 372.928 285.082 372.062 285.082 370.993C285.082 369.924 284.245 369.058 283.213 369.058C282.181 369.058 281.344 369.924 281.344 370.993C281.344 372.062 282.181 372.928 283.213 372.928Z" fill="#3F3D56"/>
<path d="M294.527 368.007C294.672 367.281 294.968 366.597 295.396 366.003C295.824 365.409 296.373 364.92 297.003 364.569C297.634 364.219 298.331 364.016 299.046 363.976C299.761 363.935 300.475 364.057 301.139 364.333C301.473 363.276 301.497 362.14 301.207 361.068C300.918 359.997 300.328 359.039 299.512 358.314C298.696 357.59 297.691 357.133 296.624 357C295.557 356.867 294.476 357.064 293.517 357.568C292.559 358.071 291.766 358.857 291.239 359.827C290.712 360.796 290.475 361.906 290.557 363.015C290.639 364.125 291.037 365.184 291.701 366.059C292.365 366.934 293.264 367.586 294.286 367.931C294.366 367.958 294.446 367.984 294.527 368.007Z" fill="white"/>
<path d="M296.836 365.857C297.868 365.857 298.705 364.991 298.705 363.922C298.705 362.853 297.868 361.987 296.836 361.987C295.804 361.987 294.967 362.853 294.967 363.922C294.967 364.991 295.804 365.857 296.836 365.857Z" fill="#3F3D56"/>
<path d="M306.216 363.788L299.834 370.521L300.478 371.175L306.86 364.442L306.216 363.788Z" fill="white"/>
<path d="M308.244 367.046L300.533 372.071L301.014 372.862L308.725 367.836L308.244 367.046Z" fill="white"/>
<path d="M286.145 378.126L277.197 379.91L277.368 380.827L286.315 379.044L286.145 378.126Z" fill="white"/>
<path d="M287.005 379.586L278.697 383.46L279.068 384.312L287.376 380.438L287.005 379.586Z" fill="white"/>
<path d="M23.5222 235.864C6.02094 219.557 -4.57621 193.626 1.93627 170.202C16.6333 191.908 38.2729 207.533 63.0264 214.312C72.5819 216.89 83.4694 218.728 89.2828 226.992C92.9002 232.134 93.7402 238.928 92.884 245.227C92.0276 251.526 89.6342 257.475 87.2626 263.343L87.3881 264.926C64.2762 260.27 41.0234 252.17 23.5222 235.864Z" fill="#E6E6E6"/>
<path d="M2.42467 170.276C6.87275 189.701 17.3442 207.781 32.0373 220.757C35.2139 223.562 38.6722 226.121 42.5514 227.776C46.3446 229.359 50.478 229.862 54.5222 229.231C58.3045 228.722 62.1163 227.748 65.9522 228.199C69.9955 228.675 73.3734 231.021 75.7332 234.398C78.6204 238.53 79.9013 243.49 80.9911 248.385C82.2011 253.821 83.3747 259.486 86.8409 263.928C87.2609 264.466 86.4297 265.109 86.0103 264.572C79.9796 256.844 80.8046 246.145 76.4369 237.605C74.3989 233.62 71.1885 230.247 66.7667 229.41C62.9001 228.678 58.9685 229.679 55.1432 230.229C51.1266 230.806 47.2405 230.666 43.3871 229.257C39.4452 227.816 35.883 225.391 32.6511 222.682C25.3664 216.483 19.0686 209.136 13.9884 200.912C8.14002 191.558 3.88029 181.238 1.39348 170.398C1.23982 169.727 2.27202 169.609 2.42466 170.276L2.42467 170.276Z" fill="white"/>
<path d="M27.0465 216.8C24.5734 219.062 21.4043 220.34 18.1051 220.406C14.8059 220.472 11.5915 219.321 9.03591 217.16C8.52027 216.721 9.15518 215.871 9.6715 216.311C12.0477 218.328 15.042 219.399 18.1141 219.331C21.1862 219.263 24.1336 218.06 26.4245 215.94C26.9228 215.48 27.542 216.343 27.0465 216.8V216.8Z" fill="white"/>
<path d="M52.6376 229.751C53.1148 222.785 51.0384 215.889 46.8225 210.438C46.4043 209.898 47.2355 209.255 47.6531 209.794C52.0301 215.475 54.1768 222.656 53.6647 229.904C53.6155 230.595 52.5885 230.438 52.6376 229.751Z" fill="white"/>
<path d="M9.49782 191.323C10.6309 190.655 11.5857 189.705 12.2767 188.56C12.9677 187.415 13.3731 186.11 13.4565 184.763C13.4973 184.072 14.5243 184.229 14.4837 184.915C14.3848 186.404 13.9354 187.844 13.1747 189.111C12.414 190.378 11.3652 191.433 10.1199 192.183C10.0082 192.264 9.871 192.298 9.73608 192.278C9.60116 192.258 9.47869 192.185 9.39354 192.075C9.31172 191.961 9.27678 191.818 9.29631 191.677C9.31584 191.536 9.38826 191.409 9.49782 191.323Z" fill="white"/>
<path d="M75.0256 137.247C75.012 137.679 74.9984 138.112 74.9918 138.549C74.8379 144.362 75.1403 150.178 75.8962 155.94C75.9478 156.386 76.0066 156.838 76.0705 157.282C78.0346 171.143 82.4674 184.507 89.1436 196.693C91.8045 201.54 94.8178 206.17 98.1572 210.543C102.77 216.583 108.235 222.751 110.581 229.807C110.834 230.541 111.043 231.29 111.206 232.05L89.2438 264.644C89.158 264.692 89.0791 264.746 88.993 264.795L88.1736 266.138C87.9861 265.924 87.7961 265.699 87.6087 265.486C87.4995 265.363 87.3951 265.233 87.2859 265.109C87.2146 265.025 87.1436 264.94 87.0746 264.868C87.0508 264.84 87.0272 264.812 87.0105 264.789C86.9415 264.717 86.8848 264.643 86.8231 264.576C85.7577 263.32 84.699 262.055 83.647 260.779C83.6399 260.774 83.6399 260.774 83.6375 260.762C75.6458 251.021 68.3692 240.504 62.8659 229.178C62.7005 228.838 62.5276 228.492 62.3721 228.136C59.9188 223.017 57.8738 217.698 56.2575 212.234C55.3818 209.239 54.653 206.2 54.0741 203.129C52.593 195.19 52.3273 187.059 53.2868 179.035C55.2017 163.039 62.0369 147.855 74.0971 137.991C74.4057 137.739 74.7097 137.494 75.0256 137.247Z" fill="#E6E6E6"/>
<path d="M75.3749 137.609C67.6293 155.891 65.4755 176.854 69.6611 196.373C70.566 200.592 71.8387 204.792 73.9737 208.531C76.0818 212.159 79.0899 215.136 82.6855 217.154C86.0015 219.105 89.6117 220.703 92.4118 223.454C95.3634 226.354 96.6964 230.333 96.6165 234.5C96.5187 239.599 94.657 244.357 92.6802 248.945C90.4853 254.039 88.1276 259.294 88.3118 265.002C88.3342 265.693 87.2964 265.688 87.2741 264.998C86.9536 255.068 93.834 247.041 95.3133 237.499C96.0036 233.047 95.4021 228.353 92.3584 224.928C89.6968 221.934 85.9753 220.283 82.6013 218.337C79.0585 216.295 76.0369 213.761 73.7795 210.234C71.4704 206.626 70.0365 202.47 69.0313 198.293C66.8202 188.802 66.0642 179.011 66.791 169.278C67.561 158.164 70.1617 147.269 74.4806 137.063C74.7481 136.432 75.6407 136.981 75.3749 137.609L75.3749 137.609Z" fill="white"/>
<path d="M67.9774 190.103C64.6875 190.367 61.414 189.412 58.7414 187.408C56.0688 185.405 54.1713 182.483 53.3876 179.164C53.2313 178.492 54.2326 178.209 54.3892 178.882C55.1134 181.973 56.8813 184.695 59.3736 186.556C61.866 188.416 64.9187 189.293 67.9808 189.028C68.6463 188.972 68.6391 190.046 67.9774 190.103Z" fill="white"/>
<path d="M80.8796 216.394C85.3117 211.13 87.6644 204.329 87.4685 197.349C87.4485 196.658 88.4863 196.662 88.5062 197.353C88.697 204.617 86.2348 211.689 81.611 217.156C81.1699 217.677 80.441 216.912 80.8796 216.394L80.8796 216.394Z" fill="white"/>
<path d="M68.7823 158.822C70.0758 158.995 71.3904 158.832 72.6081 158.348C73.8257 157.864 74.9083 157.075 75.7585 156.051C76.193 155.525 76.9216 156.291 76.4899 156.814C75.5454 157.94 74.3488 158.81 73.0047 159.348C71.6605 159.885 70.2096 160.074 68.7789 159.897C68.6427 159.892 68.5134 159.833 68.4173 159.733C68.3213 159.633 68.2656 159.499 68.2617 159.358C68.2629 159.216 68.3182 159.079 68.4157 158.979C68.5131 158.879 68.6449 158.823 68.7823 158.822V158.822Z" fill="white"/>
<path d="M275.655 139.421C278.706 121.952 273.636 102.13 259.795 91.6504C260.685 110.933 254.958 129.921 243.627 145.253C239.236 151.15 233.76 157.235 233.973 164.677C234.105 169.307 236.549 173.607 239.756 176.838C242.962 180.069 246.903 182.389 250.796 184.672L251.406 185.642C262.706 172.29 272.604 156.89 275.655 139.421Z" fill="#E6E6E6"/>
<path d="M259.546 91.9188C265.412 105.299 267.056 120.253 264.245 134.655C263.693 137.767 262.671 140.769 261.216 143.551C259.714 146.214 257.551 148.412 254.951 149.917C252.554 151.37 249.94 152.569 247.926 154.6C246.91 155.656 246.121 156.921 245.61 158.315C245.1 159.708 244.88 161.197 244.965 162.685C245.083 166.397 246.482 169.844 247.964 173.166C249.609 176.853 251.374 180.657 251.292 184.815C251.282 185.319 252.038 185.305 252.047 184.802C252.19 177.568 247.106 171.79 245.941 164.856C245.398 161.621 245.793 158.196 247.978 155.673C249.889 153.466 252.584 152.227 255.023 150.777C257.58 149.348 259.76 147.293 261.373 144.79C262.96 142.094 264.092 139.137 264.721 136.047C266.244 129.115 266.705 121.977 266.087 114.896C265.424 106.811 263.431 98.9024 260.192 91.513C259.992 91.0557 259.347 91.4646 259.546 91.9189L259.546 91.9188Z" fill="white"/>
<path d="M265.414 130.073C267.812 130.233 270.187 129.505 272.115 128.02C274.043 126.535 275.398 124.388 275.938 121.964C276.046 121.473 275.314 121.277 275.206 121.768C274.707 124.027 273.445 126.026 271.647 127.405C269.849 128.785 267.634 129.453 265.402 129.29C264.916 129.256 264.932 130.038 265.414 130.073Z" fill="white"/>
<path d="M256.26 149.345C252.984 145.555 251.208 140.626 251.287 135.541C251.295 135.037 250.54 135.051 250.531 135.554C250.459 140.846 252.317 145.971 255.734 149.908C256.06 150.283 256.584 149.718 256.26 149.345Z" fill="white"/>
<path d="M264.541 107.302C263.601 107.44 262.642 107.334 261.751 106.994C260.86 106.654 260.064 106.09 259.436 105.353C259.114 104.974 258.591 105.538 258.91 105.915C259.608 106.726 260.487 107.348 261.471 107.726C262.455 108.104 263.513 108.227 264.553 108.084C264.653 108.079 264.746 108.035 264.815 107.962C264.884 107.888 264.924 107.789 264.925 107.687C264.923 107.583 264.882 107.485 264.81 107.413C264.738 107.341 264.641 107.301 264.541 107.302L264.541 107.302Z" fill="white"/>
<path d="M203.518 106.425C203.712 106.667 203.906 106.91 204.098 107.159C206.691 110.434 209.022 113.922 211.069 117.589C211.232 117.87 211.393 118.157 211.547 118.442C216.388 127.329 219.593 137.07 221 147.168C221.556 151.187 221.815 155.244 221.777 159.304C221.723 164.911 221.234 170.986 222.923 176.132C223.094 176.671 223.296 177.198 223.53 177.711L250.216 186.336C250.286 186.324 250.355 186.319 250.425 186.307L251.476 186.702C251.492 186.493 251.504 186.275 251.52 186.066C251.53 185.945 251.534 185.821 251.544 185.7C251.549 185.618 251.553 185.537 251.562 185.464C251.563 185.436 251.565 185.409 251.564 185.388C251.573 185.315 251.574 185.246 251.581 185.179C251.653 183.964 251.717 182.747 251.773 181.527C251.775 181.52 251.775 181.52 251.771 181.512C252.176 172.214 251.834 162.8 250.124 153.738C250.072 153.465 250.023 153.186 249.959 152.91C249.166 148.83 248.052 144.823 246.628 140.931C245.842 138.803 244.953 136.716 243.963 134.681C241.395 129.426 238.045 124.623 234.036 120.446C226.042 112.121 215.566 106.535 204.373 106.425C204.086 106.422 203.806 106.421 203.518 106.425Z" fill="#E6E6E6"/>
<path d="M203.472 106.795C215.937 113.823 225.947 124.737 232.078 137.989C233.447 140.818 234.377 143.852 234.833 146.98C235.183 150.042 234.734 153.146 233.533 155.967C232.464 158.622 231.074 161.209 230.647 164.086C230.45 165.562 230.556 167.064 230.959 168.495C231.362 169.925 232.052 171.251 232.985 172.386C235.238 175.277 238.36 177.157 241.475 178.885C244.933 180.805 248.554 182.742 250.907 186.112C251.192 186.521 251.787 186.039 251.503 185.631C247.409 179.766 239.99 178.322 235.028 173.511C232.712 171.267 231.036 168.286 231.313 164.909C231.555 161.957 232.987 159.288 234.091 156.61C235.302 153.875 235.847 150.875 235.679 147.871C235.378 144.729 234.563 141.663 233.268 138.804C230.452 132.319 226.67 126.333 222.058 121.065C216.827 115.022 210.636 109.95 203.752 106.068C203.326 105.828 203.049 106.557 203.472 106.795L203.472 106.795Z" fill="white"/>
<path d="M230.347 133.602C232.355 132.235 233.828 130.173 234.503 127.786C235.179 125.398 235.012 122.84 234.034 120.567C233.835 120.108 233.136 120.408 233.336 120.867C234.251 122.982 234.405 125.365 233.772 127.587C233.139 129.809 231.759 131.723 229.882 132.985C229.474 133.259 229.941 133.875 230.347 133.602Z" fill="white"/>
<path d="M234.246 154.695C229.427 153.711 225.142 150.882 222.248 146.773C221.961 146.365 221.366 146.847 221.652 147.254C224.672 151.524 229.136 154.459 234.154 155.472C234.632 155.568 234.722 154.791 234.246 154.695Z" fill="white"/>
<path d="M216.407 115.964C215.737 116.66 214.91 117.173 214 117.457C213.091 117.741 212.128 117.786 211.197 117.59C210.72 117.487 210.631 118.264 211.104 118.366C212.134 118.579 213.197 118.527 214.203 118.216C215.208 117.905 216.125 117.343 216.872 116.581C216.948 116.515 216.998 116.422 217.01 116.32C217.022 116.218 216.996 116.115 216.938 116.032C216.876 115.95 216.785 115.898 216.686 115.885C216.587 115.872 216.487 115.9 216.407 115.964L216.407 115.964Z" fill="white"/>
<path d="M67.1969 200.321C70.8915 200.321 74.4348 201.84 77.0473 204.545C79.6598 207.249 81.1275 210.918 81.1275 214.743V214.743C81.127 218.088 80.0032 221.329 77.9485 223.911C75.8939 226.494 73.0361 228.256 69.8645 228.897V252.485H60.9727V200.321H67.1969Z" fill="#3F3D56"/>
<path d="M408.421 338.493V343.432C406.399 346.108 404.315 348.731 402.171 351.301C401.94 351.582 401.705 351.858 401.464 352.139C401.101 352.579 400.727 353.013 400.354 353.448V338.493H408.421Z" fill="#CACACA"/>
<path d="M384.751 328.191C382.968 328.194 381.259 328.928 379.998 330.233C378.737 331.539 378.027 333.309 378.025 335.155V345.176C378.027 347.022 378.737 348.791 379.998 350.097C381.259 351.402 382.968 352.137 384.751 352.139H401.464C401.705 351.858 401.94 351.582 402.171 351.301C404.315 348.731 406.399 346.108 408.421 343.432C408.554 343.257 408.687 343.082 408.815 342.907C409.972 341.376 411.108 339.818 412.224 338.249C413.094 337.02 413.959 335.78 414.804 334.529C414.809 334.524 414.814 334.524 414.814 334.519C416.227 332.441 417.604 330.332 418.945 328.191H384.751Z" fill="#3F3D56"/>
<path d="M427.785 242.418C426.757 242.051 425.678 241.864 424.591 241.867H421.842C420.841 241.867 419.845 242.023 418.888 242.328C416.87 242.984 415.107 244.29 413.854 246.055C412.601 247.82 411.924 249.952 411.922 252.142V335.738C411.922 336.05 411.937 336.358 411.963 336.66C412.007 337.196 412.095 337.728 412.224 338.25C413.094 337.02 413.959 335.78 414.804 334.529C414.809 334.524 414.814 334.524 414.814 334.519C416.227 332.442 417.604 330.332 418.945 328.192C419.667 327.042 420.383 325.881 421.084 324.715C426.152 316.298 430.64 307.522 434.516 298.452V252.142C434.514 249.997 433.864 247.906 432.657 246.162C431.45 244.419 429.746 243.109 427.785 242.418Z" fill="#3F3D56"/>
<path d="M88.994 338.493V348.472C86.6906 345.621 84.4639 342.706 82.314 339.728C82.0171 339.32 81.7254 338.907 81.4336 338.493H88.994Z" fill="#CACACA"/>
<path d="M104.596 328.191H74.5332C75.4802 329.702 76.4442 331.194 77.4253 332.669C78.7255 334.635 80.0615 336.577 81.4333 338.493C81.725 338.906 82.0168 339.32 82.3137 339.728C84.4687 342.706 86.6954 345.621 88.9937 348.472C89.4237 349.012 89.8588 349.547 90.299 350.083C90.862 350.772 91.4336 351.457 92.0138 352.139H104.596C106.378 352.136 108.087 351.402 109.347 350.096C110.607 348.791 111.316 347.021 111.317 345.176V335.155C111.316 333.309 110.607 331.539 109.347 330.234C108.087 328.928 106.378 328.194 104.596 328.191Z" fill="#3F3D56"/>
<path d="M72.0874 243.027C70.6701 242.266 69.0974 241.868 67.501 241.867H64.7573C63.459 241.865 62.1733 242.13 60.9745 242.646C59.1584 243.422 57.6055 244.739 56.5122 246.429C55.4188 248.12 54.8341 250.108 54.832 252.142V288.055C60.0005 302.122 66.6053 315.577 74.5341 328.192C75.4811 329.702 76.4451 331.194 77.4262 332.669V252.142C77.4249 250.263 76.9266 248.42 75.9855 246.813C75.0443 245.207 73.6962 243.897 72.0874 243.027Z" fill="#3F3D56"/>
<path d="M183.914 398.233L192.931 396.091L189.242 359.064L175.934 362.226L183.914 398.233Z" fill="#9E616A"/>
<path d="M192.116 366.108C191.931 365.455 191.806 364.786 191.742 364.11C191.667 363.31 191.516 362.52 191.292 361.752C191.036 361.052 190.719 360.378 190.345 359.738C190.166 359.399 189.976 359.06 189.807 358.715C189.637 358.371 189.49 358.015 189.367 357.65C184.09 341.514 176.724 319.585 171.615 306.751C168.611 299.199 150.132 296.687 132.697 296.046C130.573 295.967 128.464 295.914 126.401 295.887C125.69 295.877 124.983 295.866 124.282 295.861C122.491 295.85 120.745 295.85 119.066 295.871C118.846 295.871 118.626 295.871 118.406 295.877C117.182 295.887 115.997 295.905 114.848 295.93C106.955 296.088 101.156 296.459 100.122 296.528L90.9129 290.535L89.1162 289.364L88.9268 290.535L87.4782 299.469L85.0059 314.715L91.2047 316.517L95.228 317.683L119.066 324.604L124.134 326.077L124.164 326.088L132.697 326.072L156.029 326.029L157.155 329.119C156.75 329.769 156.484 330.501 156.374 331.266C156.264 332.03 156.313 332.811 156.517 333.555C156.721 334.299 157.075 334.989 157.557 335.58C158.038 336.171 158.636 336.649 159.31 336.983L160.185 337.412L170.847 366.622C170.88 369.264 171.677 371.835 173.136 374.003C173.315 374.274 173.509 374.539 173.714 374.798L173.949 375.09L178.05 383.394L180.491 382.811L190.882 380.347L190.933 380.241C190.939 380.225 191.072 379.933 191.266 379.425V379.409C192.08 377.305 193.882 371.555 192.116 366.108Z" fill="#2F2E41"/>
<path d="M217.449 400.696C217.061 398.916 216.336 397.233 215.317 395.744C214.298 394.255 213.005 392.989 211.511 392.02C210.018 391.051 208.354 390.397 206.615 390.096C204.877 389.795 203.098 389.853 201.381 390.267L194.179 386.902L192.162 388.37L183.798 394.443L183.107 394.607L180.865 395.137L183.962 409.111L217.551 401.136L217.449 400.696Z" fill="#2F2E41"/>
<path d="M172.896 379.149L169.85 404.713L169.748 405.55L169.297 409.36C167.542 408.618 165.791 407.85 164.061 407.06C162.443 406.324 160.838 405.564 159.244 404.781V379.154L172.896 379.149Z" fill="#9E616A"/>
<path d="M106.805 203.408C117.003 203.408 125.27 194.85 125.27 184.292C125.27 173.735 117.003 165.176 106.805 165.176C96.6069 165.176 88.3398 173.735 88.3398 184.292C88.3398 194.85 96.6069 203.408 106.805 203.408Z" fill="#9E616A"/>
<path d="M174.856 388.905C174.344 388.179 173.812 387.421 173.781 386.695C173.663 384.135 173.541 381.602 173.413 379.122C173.32 377.389 173.228 375.678 173.136 374.003C173.126 373.791 173.111 373.579 173.1 373.372C172.942 370.601 173.735 367.676 174.498 364.841C174.749 363.913 174.999 362.975 175.225 362.037C175.788 359.947 176.024 357.777 175.926 355.609C174.615 338.445 168.76 322.304 166.134 319.585C162.141 315.452 144.087 305.902 132.698 300.094C130.676 299.061 128.864 298.15 127.38 297.408C126.064 296.745 125.004 296.221 124.283 295.86C123.73 295.59 123.372 295.415 123.249 295.352L123.187 295.32L119.067 295.797L118.406 295.876L114.772 296.3L91.1286 299.045L87.4789 299.469L82.3141 300.073L77.6509 300.614L77.4768 300.63L77.4461 300.81C77.4461 300.815 77.4359 300.852 77.4256 300.921C76.6237 306.159 76.6237 311.496 77.4256 316.734C78.0296 320.29 79.1711 323.904 81.1982 326.946C81.4746 327.359 81.7612 327.757 82.0684 328.138C82.0788 328.158 82.0926 328.176 82.1093 328.191C82.1758 328.276 82.2424 328.361 82.3141 328.445V328.451C84.6326 331.242 87.7449 333.203 91.2053 334.052C91.7172 334.195 92.2393 334.312 92.7768 334.407C98.5047 335.456 104.975 336.421 111.317 337.269C113.943 337.618 116.548 337.947 119.067 338.254C124.109 338.869 128.818 339.388 132.698 339.802C138.134 340.374 141.953 340.729 142.802 340.803L152.298 386.663C151.553 387.968 151.255 389.495 151.454 390.997C151.653 392.498 152.336 393.886 153.393 394.935L154.171 395.714L155.072 400.081L158.041 404.193L158.415 404.712H171.514L171.585 404.622C171.631 404.559 176.238 398.433 175.926 391.136C175.895 390.383 175.388 389.668 174.856 388.905Z" fill="#2F2E41"/>
<path d="M174.499 235.208C173.508 234.927 172.468 234.875 171.455 235.055C170.441 235.235 169.478 235.643 168.633 236.25C167.789 236.857 167.083 237.649 166.565 238.569C166.048 239.489 165.732 240.515 165.639 241.575L150.297 246.54L150.937 256.928L172.508 249.602C174.239 249.645 175.925 249.03 177.247 247.872C178.568 246.715 179.434 245.095 179.679 243.321C179.925 241.547 179.533 239.741 178.578 238.245C177.624 236.75 176.172 235.669 174.499 235.208Z" fill="#9E616A"/>
<path d="M164.489 252.398L153.022 256.891L152.729 257.48C152.381 258.179 151.903 258.8 151.323 259.308C150.743 259.816 150.072 260.201 149.349 260.44C148.625 260.68 147.863 260.77 147.106 260.704C146.349 260.639 145.612 260.42 144.936 260.059L119.163 270.158C119.163 270.158 107.653 258.234 99.459 247.592L102.252 229.808C102.899 225.682 104.273 221.715 106.308 218.104C123.113 221.919 132.76 246.24 132.76 246.24L163.048 240.257L164.489 252.398Z" fill="#B5FBD6"/>
<path d="M104.181 202.387C99.5588 203.679 94.4624 201.961 90.8548 198.701C87.2473 195.442 84.9906 190.823 83.6903 186.052C82.738 182.558 82.2865 178.679 83.7893 175.399C85.292 172.119 89.3365 169.906 92.4569 171.562C90.5319 169.241 91.4936 165.401 93.7417 163.415C95.9899 161.428 99.0769 160.859 102.017 160.548C106.284 160.096 110.692 160.045 114.752 161.476C118.812 162.908 122.501 166.036 123.772 170.277C125.07 170.903 126.532 171.065 127.928 170.739C129.325 170.413 130.577 169.616 131.49 168.474C131.725 169.785 131.536 171.141 130.952 172.33C130.368 173.52 129.422 174.477 128.26 175.054L134.481 172.966C135.551 175.31 133.676 178.212 131.279 178.963C128.881 179.714 126.293 178.893 124.018 177.808C121.743 176.723 119.539 175.352 117.068 174.929C114.596 174.506 111.694 175.328 110.551 177.635C109.952 178.844 109.921 180.259 109.573 181.569C109.226 182.878 108.345 184.236 107.037 184.343C106.211 184.411 105.402 183.955 104.578 184.048C104.072 184.152 103.607 184.405 103.238 184.778C102.87 185.151 102.614 185.627 102.503 186.148C102.298 187.193 102.295 188.27 102.495 189.317L104.076 201.822L104.181 202.387Z" fill="#2F2E41"/>
<path d="M127.379 297.408L126.401 295.887L119.266 284.806L119.122 284.589L121.329 272.74L122.014 269.041L123.514 260.991L123.079 242.566L122.767 229.53L122.721 227.484L121.139 222.492C120.389 220.158 119.185 218.008 117.6 216.175C116.015 214.342 114.084 212.865 111.925 211.835L101.278 206.791C100.025 206.2 98.5971 206.149 97.3077 206.649C96.0184 207.148 94.9736 208.158 94.4032 209.455C94.3555 209.563 94.3114 209.673 94.2708 209.785C92.8119 209.991 86.48 211.094 81.1104 215.407C77.3488 218.37 74.7227 222.617 73.6985 227.394C73.6882 227.431 73.6831 227.468 73.6729 227.505C72.9614 230.796 72.429 235.989 72.0861 243.027C71.8557 247.68 71.7107 253.131 71.651 259.38C71.5554 269.798 72.1214 280.21 73.3453 290.551C73.463 291.536 73.5859 292.517 73.7138 293.502C73.8213 294.329 74.5891 295.119 75.3314 295.876C76.0122 296.571 76.7134 297.291 76.8107 297.943C76.8977 298.515 76.5445 299.114 76.1248 299.739C76.0736 299.819 76.0173 299.898 75.9661 299.978C75.444 300.746 74.9065 301.547 75.0447 302.389C75.3672 304.286 75.5566 306.215 75.7357 308.081C75.9358 310.649 76.2949 313.201 76.8107 315.722C76.9898 316.496 77.1946 317.275 77.4249 318.054C77.9624 319.882 78.6125 321.705 79.2472 323.485C79.7949 325.033 80.3631 326.623 80.8443 328.191C80.9364 328.483 81.0234 328.769 81.1053 329.055L81.1463 329.203L81.2947 329.23H81.305C81.5066 328.858 81.7469 328.509 82.0216 328.191C82.034 328.171 82.0496 328.153 82.0676 328.138C82.1393 328.048 82.2212 327.953 82.3134 327.852C83.4344 326.585 85.8709 324.312 91.2046 320.481C92.3973 319.628 93.7333 318.7 95.228 317.683C100.71 313.968 108.368 309.13 119.066 302.882C121.748 301.313 124.627 299.655 127.701 297.906L127.379 297.408Z" fill="#B5FBD6"/>
<path d="M184.797 413.981C183.553 412.688 182.075 411.664 180.447 410.966C178.819 410.269 177.074 409.912 175.312 409.916L169.747 405.55L169.015 404.972L164.061 407.06C165.791 407.85 167.541 408.618 169.297 409.36C174.789 411.681 180.398 413.755 186.122 415.581C185.72 415.014 185.277 414.479 184.797 413.981Z" fill="#2F2E41"/>
<path d="M308.379 397.872L301.41 394.421L310.983 364.266L321.268 369.359L308.379 397.872Z" fill="#FFB6B6"/>
<path d="M355.098 393.012C353.071 394.32 351.018 395.592 348.94 396.827V396.843L348.909 396.848L348.899 396.854L348.111 397.055L346.98 393.96L344.369 386.822L337.254 367.374L348.316 364.549L348.94 367.172L353.619 386.817L354.96 392.434L355.098 393.012Z" fill="#FFB6B6"/>
<path d="M326.887 266.804C327.881 268.475 329.466 269.678 331.305 270.155C333.144 270.633 335.09 270.347 336.728 269.36C337.058 269.153 337.37 268.919 337.662 268.659L359.694 281.748L358.737 268.312L337.962 257.942C336.831 256.767 335.356 256.013 333.767 255.799C332.179 255.584 330.566 255.922 329.182 256.759C327.599 257.743 326.458 259.338 326.01 261.194C325.563 263.049 325.846 265.013 326.797 266.652C326.826 266.703 326.856 266.754 326.887 266.804Z" fill="#FFB6B6"/>
<path d="M350.221 276.82L354.115 279.277L371.606 290.318C372.754 291.062 374.032 291.564 375.368 291.796C376.703 292.029 378.07 291.986 379.39 291.672C380.709 291.357 381.956 290.776 383.059 289.963C384.162 289.149 385.1 288.119 385.818 286.93L385.824 286.921C387.119 284.712 387.577 282.085 387.11 279.546L379.336 239.339C379.049 237.761 378.436 236.265 377.539 234.955C376.642 233.644 375.483 232.55 374.139 231.746C372.796 230.942 371.301 230.448 369.757 230.297C368.212 230.147 366.654 230.343 365.19 230.873C362.728 231.769 360.688 233.601 359.486 235.999C358.283 238.396 358.008 241.177 358.716 243.777L366.845 272.311L354.385 266.297L350.221 276.82Z" fill="#B5FBD6"/>
<path d="M421.939 316.464C421.934 316.448 421.924 316.39 421.908 316.3L421.893 316.241C421.857 316.051 421.816 315.839 421.77 315.606C420.726 310.236 419.384 304.934 417.752 299.724C416.785 296.533 415.504 293.454 413.928 290.535C413.877 290.439 413.821 290.344 413.764 290.249L413.575 289.931L411.983 290.535L411.922 290.556L387.72 299.74L380.723 302.394L380.503 302.479L379.31 307.514L362.577 305.272L348.941 303.444L345.025 302.919C343.327 302.69 341.603 302.813 339.951 303.281C338.3 303.748 336.755 304.551 335.407 305.643C333.999 306.772 332.823 308.181 331.947 309.786C331.071 311.391 330.512 313.16 330.303 314.991C330.252 315.394 330.221 315.802 330.206 316.204L329.023 361.868V361.926L329.571 363.06L341.012 386.822H348.941L353.619 386.817H357.422L349.514 366.102L349.693 365.821C350.437 364.64 350.906 363.297 351.063 361.896C351.221 360.496 351.062 359.077 350.599 357.75L351.49 355.08C353.338 349.563 352.462 346.913 351.357 343.564C350.364 340.841 349.78 337.976 349.626 335.07L349.442 331.291C354.085 332.134 358.41 333.072 362.577 334.015C363.969 334.328 365.348 334.644 366.713 334.964C370.598 335.859 374.35 336.723 378.025 337.444C385.468 338.912 392.598 339.807 399.923 339.251C400.067 339.24 400.21 339.23 400.353 339.214C402.135 339.065 403.926 338.827 405.738 338.493C406.757 338.302 407.781 338.085 408.815 337.831C409.101 337.756 409.393 337.682 409.68 337.608C410.476 337.391 411.243 337.072 411.963 336.659C412.987 336.067 413.941 335.352 414.804 334.529C414.809 334.524 414.814 334.524 414.814 334.519C416.227 332.441 417.604 330.332 418.945 328.191C419.666 327.041 420.383 325.881 421.084 324.715C422.108 321.806 422.497 318.87 421.939 316.464Z" fill="#2F2E41"/>
<path d="M422.107 307.885C422.03 307.546 421.933 307.201 421.831 306.867C421.018 304.339 420.071 301.858 418.995 299.438C417.787 296.682 416.338 293.73 414.613 290.535C413.779 288.988 412.881 287.378 411.921 285.707C411.439 284.87 410.94 284.017 410.421 283.148C410.401 283.108 410.378 283.069 410.354 283.031L410.206 282.777L386.26 286.094L377.343 287.329L376.811 291.929L376.683 293.068C376.678 293.068 376.678 293.068 376.683 293.073L376.325 296.179V296.184L375.849 300.286L375.808 300.28L362.576 298.505L348.939 296.677L341.615 295.696C339.917 295.467 338.192 295.59 336.541 296.058C334.89 296.526 333.345 297.329 331.996 298.42C330.589 299.55 329.413 300.958 328.537 302.563C327.661 304.168 327.102 305.937 326.893 307.768C326.847 308.139 326.816 308.521 326.801 308.897L319.89 325.849C315.755 335.988 313.122 346.714 312.079 357.666L307.012 374.438L307.733 374.507L318.473 375.54L321.308 375.816L327.553 366.378C328.265 365.302 328.94 364.195 329.57 363.061C330.607 361.208 331.528 359.29 332.329 357.316L345.837 324.037C346.882 324.222 347.916 324.399 348.939 324.567C353.674 325.362 358.22 326.01 362.576 326.512C376.739 328.149 389.004 328.276 399.922 326.888C402.988 326.501 405.952 325.992 408.814 325.362C409.863 325.134 410.899 324.888 411.921 324.625C412.161 324.567 412.397 324.508 412.632 324.445C414.748 323.88 416.692 322.775 418.289 321.231C419.885 319.687 421.082 317.753 421.769 315.606C422.59 313.118 422.707 310.439 422.107 307.885Z" fill="#2F2E41"/>
<path d="M371.189 207.798C380.336 207.798 387.752 199.949 387.752 190.268C387.752 180.587 380.336 172.738 371.189 172.738C362.041 172.738 354.625 180.587 354.625 190.268C354.625 199.949 362.041 207.798 371.189 207.798Z" fill="#FFB6B6"/>
<path d="M410.519 283.736C410.493 283.54 410.463 283.344 410.422 283.147C410.027 280.996 409.004 278.887 408.016 276.841C407.074 274.891 406.178 273.047 405.81 271.214C405.446 269.407 405.661 267.594 405.871 265.845C406.096 263.948 406.332 261.988 405.805 260.085C403.131 250.369 399.458 240.979 394.85 232.073C393.688 228.158 391.459 224.672 388.431 222.035C385.403 219.397 381.705 217.72 377.779 217.204C378.238 216.318 378.428 215.31 378.327 214.31C378.263 213.664 378.076 213.038 377.776 212.468C377.476 211.897 377.07 211.394 376.582 210.988C376.112 210.596 375.572 210.304 374.993 210.13C374.414 209.955 373.808 209.901 373.208 209.97L365.51 210.866C364.275 211.026 363.152 211.684 362.384 212.698C361.617 213.711 361.266 214.997 361.41 216.276C361.453 216.67 361.539 217.058 361.665 217.431C354.52 226.854 350.85 235.438 350.512 243.557V243.562C350.471 244.5 350.476 245.439 350.527 246.376C350.689 249.407 351.325 252.39 352.411 255.21C353.693 258.467 355.409 261.523 357.509 264.287C357.939 264.849 358.384 265.4 358.845 265.941C359.275 266.471 359.756 267.027 360.289 267.61L361.635 269.793L362.889 271.834L369.594 287.853L373.009 287.737L373.485 291.261L373.597 292.082L375.809 300.28L375.972 300.895L378.998 299.406L397.046 290.535L410.539 283.9L410.519 283.736Z" fill="#B5FBD6"/>
<path opacity="0.2" d="M352.613 255.125C354.152 259.028 356.316 262.634 359.013 265.791C359.475 266.363 359.962 266.923 360.473 267.485L363.093 271.742C372.752 264.247 380.577 234.736 380.577 234.736L369.68 232.541L352.613 255.125Z" fill="black"/>
<path d="M346.016 209.436C346.971 211.133 347.248 213.148 346.789 215.054C346.329 216.959 345.17 218.603 343.558 219.637C343.227 219.842 342.88 220.018 342.521 220.164L343.292 246.45L332.297 239.284L333.25 215.421C332.782 213.833 332.835 212.129 333.401 210.576C333.967 209.022 335.013 207.706 336.378 206.834C337.954 205.846 339.846 205.547 341.635 206.003C343.425 206.46 344.966 207.633 345.92 209.265C345.953 209.322 345.985 209.379 346.016 209.436Z" fill="#FFB6B6"/>
<path d="M344.258 236.527L332.166 238.307L332.686 264.23C332.716 266.08 333.202 267.89 334.099 269.49C334.995 271.09 336.272 272.426 337.808 273.371C339.684 274.514 341.868 274.994 344.031 274.74C346.194 274.486 348.218 273.511 349.799 271.962L378.346 243.535C380.355 241.562 381.557 238.868 381.705 236.006C381.854 233.144 380.937 230.332 379.144 228.148C377.387 225.995 374.876 224.653 372.163 224.416C369.45 224.18 366.758 225.069 364.678 226.888C364.597 226.959 364.516 227.032 364.437 227.105C364.155 227.367 363.887 227.643 363.633 227.934L344.783 250.384L344.258 236.527Z" fill="#B5FBD6"/>
<path d="M355.405 392.349L354.959 392.434L348.94 393.584L346.979 393.96L343.893 394.548L344.988 399.122C346.304 398.385 347.604 397.627 348.899 396.853L348.909 396.848L348.94 396.843V396.827C351.018 395.598 353.071 394.326 355.098 393.012C355.241 392.921 355.384 392.831 355.528 392.731L355.405 392.349Z" fill="#2F2E41"/>
<path d="M310.606 392.948L303.066 389.207L301.883 388.619L299.994 393.42L286.808 396.424C286.156 396.572 285.567 396.932 285.127 397.452C284.687 397.971 284.418 398.622 284.361 399.311C284.304 399.999 284.461 400.689 284.809 401.278C285.157 401.868 285.679 402.326 286.297 402.587L299.18 408.03L303.27 404.22L302.267 409.333L307.12 411.384L312.438 393.86L310.606 392.948Z" fill="#2F2E41"/>
<path d="M415.511 182.666C412.696 179.267 411.357 174.757 409.106 170.897C406.855 167.037 402.939 163.583 398.801 164.481C395.949 165.1 393.744 167.706 392.628 170.611C391.512 173.516 391.303 176.72 391.108 179.858C391.177 173.409 387.072 167.156 381.418 165.098C375.764 163.04 368.998 165.335 365.445 170.517C363.895 169.029 361.871 168.182 359.757 168.136C357.644 168.09 355.587 168.849 353.978 170.268C350.8 173.208 350.097 178.805 352.434 182.555C354.771 186.306 359.833 187.703 363.547 185.623L364.86 186.874C364.121 189.55 365.554 192.711 367.963 193.718C369.917 194.535 372.675 194.399 373.406 196.522C373.917 198.005 372.962 199.588 371.947 200.728C370.931 201.868 369.725 203.045 369.603 204.622C369.419 207.001 371.794 208.668 373.953 209.17C379.16 210.381 384.937 207.885 387.938 203.128C387.995 203.036 388.058 202.944 388.126 202.852C389.81 200.623 391.037 198.062 391.732 195.326C392.427 192.59 392.577 189.735 392.17 186.937C392.002 185.837 392.172 185.02 392.904 184.759C396.069 183.634 404.935 185.996 407.618 188.131C410.302 190.265 412.451 193.091 415.036 195.363C417.62 197.636 420.914 199.388 424.196 198.77C426.825 198.274 429.061 196.298 430.565 193.916C432.069 191.533 432.934 188.755 433.71 185.995C427.897 189.471 419.943 188.016 415.511 182.666Z" fill="#2F2E41"/>
<path d="M362.574 287.157V387.949C360.721 389.268 358.844 390.552 356.944 391.801V293.839C356.944 290.999 356.022 288.694 354.891 288.689H269.669C268.532 288.694 267.616 290.999 267.611 293.839V423.915C266.475 424.031 265.338 424.143 264.202 424.238C263.731 424.28 263.255 424.318 262.784 424.355C262.513 423.835 262.247 423.311 261.98 422.781V287.157C261.98 286.373 262.011 285.583 262.062 284.804C262.523 278.191 264.811 273.358 267.488 273.347H357.066C357.391 273.349 357.711 273.42 358.008 273.554C360.25 274.54 362.021 278.864 362.467 284.454C362.538 285.345 362.579 286.251 362.574 287.157Z" fill="#E4E4E4"/>
<path d="M225.837 287.157V423.512C225.76 423.639 225.683 423.761 225.606 423.888C223.682 423.687 221.766 423.456 219.858 423.194V293.839C219.858 290.999 218.88 288.694 217.677 288.689H127.224C126.021 288.694 125.043 290.999 125.043 293.839V383.64C123.021 382.098 121.028 380.517 119.064 378.898V287.157C119.064 286.373 119.095 285.583 119.151 284.804C119.638 278.191 122.069 273.358 124.915 273.347H219.986C220.328 273.348 220.667 273.418 220.984 273.554C223.364 274.54 225.248 278.864 225.724 284.454C225.801 285.345 225.837 286.251 225.837 287.157Z" fill="#E4E4E4"/>
<path d="M195.523 241.843L201.451 268.845L205.239 273.141H207.972L196.709 224.045L196.152 232.386V232.392L195.523 241.843Z" fill="#3F3D56"/>
<path d="M215.263 274.521C215.246 274.479 215.224 274.44 215.197 274.404C215.142 274.276 215.064 274.161 214.967 274.065L214.276 273.349L210.641 269.582C210.374 269.311 210.016 269.159 209.643 269.158H209.628L207.063 269.174L204.857 269.19L201.776 269.211L180.789 269.349L166.994 269.439C166.62 269.443 166.263 269.6 166 269.875C165.737 270.149 165.588 270.52 165.586 270.906C165.588 271.121 165.633 271.332 165.719 271.526L165.985 272.115L166.543 273.349L167.27 274.966L167.628 275.761C167.743 276.014 167.924 276.228 168.152 276.378C168.379 276.528 168.643 276.608 168.913 276.608H213.963C214.2 276.604 214.433 276.539 214.64 276.419C214.847 276.3 215.022 276.129 215.151 275.923C215.279 275.717 215.357 275.481 215.376 275.236C215.396 274.992 215.357 274.746 215.263 274.521H215.263Z" fill="#3F3D56"/>
<path opacity="0.17" d="M167.271 274.964L167.627 275.762C167.743 276.014 167.925 276.227 168.153 276.377C168.38 276.527 168.644 276.607 168.914 276.609H213.966C214.202 276.604 214.435 276.54 214.642 276.42C214.849 276.301 215.024 276.13 215.152 275.924C215.281 275.718 215.358 275.482 215.377 275.238C215.397 274.993 215.358 274.748 215.264 274.522C215.248 274.48 215.226 274.441 215.198 274.406L167.271 274.964Z" fill="black"/>
<path opacity="0.17" d="M196.152 232.386V232.392L205.797 273.141H207.973L196.71 224.045L196.152 232.386Z" fill="black"/>
<path d="M211.282 118.352L209.869 118.155C209.482 118.103 209.09 118.212 208.779 118.457L207.934 119.13L198.531 131.308C198.221 131.557 198.018 131.923 197.968 132.326L197.441 136.47L184.316 239.853C184.27 240.236 184.363 240.623 184.578 240.939L190.761 258.586L190.945 258.861L191.345 259.449C191.55 259.748 191.851 259.962 192.194 260.054L193.09 260.287C193.294 260.339 193.506 260.347 193.712 260.309C193.918 260.27 194.115 260.187 194.288 260.064C194.462 259.943 194.608 259.785 194.718 259.6C194.827 259.416 194.897 259.209 194.923 258.994L196.525 246.392V246.387L197.548 238.3L198.414 231.48V231.475L212.562 120.068C212.613 119.666 212.508 119.259 212.269 118.938C212.03 118.616 211.678 118.405 211.289 118.352L211.282 118.352Z" fill="#3F3D56"/>
<path opacity="0.17" d="M207.932 119.131L190.76 258.588L190.946 258.861L191.344 259.447C191.55 259.747 191.851 259.961 192.194 260.052L193.091 260.285C193.294 260.337 193.506 260.345 193.712 260.306C193.918 260.268 194.113 260.185 194.286 260.063C194.459 259.941 194.605 259.783 194.715 259.599C194.825 259.414 194.896 259.208 194.923 258.993L212.56 120.07C212.611 119.667 212.505 119.259 212.266 118.936C212.027 118.613 211.673 118.402 211.284 118.349L209.867 118.156C209.675 118.129 209.48 118.142 209.293 118.194C209.105 118.247 208.93 118.337 208.777 118.46L207.932 119.131Z" fill="black"/>
<path d="M207.425 123.119L198.312 136.585L187.48 221.904L193.353 233.964L207.425 123.119Z" fill="#B5FBD6"/>
<path d="M296.195 241.843L290.267 268.845L286.479 273.141H283.746L295.009 224.045L295.566 232.386V232.392L296.195 241.843Z" fill="#3F3D56"/>
<path d="M324.724 269.439L289.947 269.211L286.86 269.19L284.659 269.174L282.095 269.158H282.074C281.702 269.158 281.345 269.311 281.081 269.582L276.751 274.065C276.655 274.163 276.577 274.278 276.52 274.404C276.493 274.44 276.471 274.479 276.454 274.521C276.36 274.746 276.321 274.992 276.341 275.236C276.361 275.481 276.438 275.717 276.567 275.923C276.695 276.129 276.87 276.3 277.078 276.419C277.285 276.539 277.517 276.604 277.754 276.608H322.804C323.074 276.607 323.339 276.527 323.567 276.377C323.795 276.227 323.978 276.013 324.094 275.761L324.447 274.966L325.174 273.349L325.998 271.526C326.086 271.332 326.132 271.121 326.131 270.906C326.129 270.52 325.981 270.149 325.717 269.875C325.454 269.6 325.097 269.443 324.724 269.439Z" fill="#3F3D56"/>
<path opacity="0.17" d="M324.447 274.964L324.091 275.762C323.975 276.014 323.793 276.227 323.566 276.377C323.338 276.527 323.074 276.607 322.805 276.609H277.753C277.516 276.604 277.284 276.54 277.077 276.42C276.87 276.301 276.694 276.13 276.566 275.924C276.437 275.718 276.36 275.482 276.341 275.238C276.321 274.993 276.36 274.748 276.454 274.522C276.47 274.48 276.492 274.441 276.52 274.406L324.447 274.964Z" fill="black"/>
<path opacity="0.17" d="M295.566 232.386V232.392L285.922 273.141H283.746L295.009 224.045L295.566 232.386Z" fill="black"/>
<path d="M307.402 239.853L293.75 132.326C293.7 131.923 293.498 131.557 293.187 131.308L283.789 119.131L282.945 118.458C282.632 118.212 282.238 118.104 281.849 118.156L280.436 118.352C280.047 118.404 279.693 118.614 279.453 118.936C279.213 119.258 279.106 119.665 279.157 120.069L293.305 231.48V231.485L294.17 238.3L295.199 246.392V246.403L296.796 258.994C296.821 259.21 296.892 259.417 297.002 259.602C297.113 259.787 297.261 259.944 297.436 260.064C297.608 260.187 297.803 260.27 298.009 260.309C298.215 260.347 298.426 260.34 298.628 260.287L299.524 260.054C299.867 259.962 300.168 259.748 300.374 259.45L300.773 258.861L300.957 258.586L307.141 240.939C307.358 240.625 307.451 240.236 307.402 239.853Z" fill="#3F3D56"/>
<path opacity="0.17" d="M283.787 119.131L300.959 258.588L300.773 258.861L300.375 259.447C300.169 259.747 299.868 259.961 299.525 260.052L298.628 260.285C298.425 260.337 298.213 260.345 298.007 260.306C297.802 260.268 297.606 260.185 297.433 260.063C297.26 259.941 297.114 259.783 297.004 259.599C296.894 259.414 296.823 259.208 296.796 258.993L279.159 120.07C279.108 119.667 279.214 119.259 279.453 118.936C279.692 118.613 280.046 118.402 280.435 118.349L281.852 118.156C282.044 118.129 282.239 118.142 282.427 118.194C282.614 118.247 282.789 118.337 282.943 118.46L283.787 119.131Z" fill="black"/>
<path d="M284.293 123.119L293.406 136.585L304.237 221.904L298.365 233.964L284.293 123.119Z" fill="#B5FBD6"/>
<path d="M114.915 295.134C114.917 295.401 114.894 295.667 114.849 295.929C114.828 296.057 114.803 296.178 114.772 296.3C114.523 297.286 113.965 298.158 113.186 298.78C112.407 299.402 111.451 299.74 110.467 299.739H91.2052V347.3C91.206 348.305 90.8877 349.283 90.2991 350.082C89.8589 349.547 89.4238 349.012 88.9939 348.471C86.6904 345.62 84.4638 342.706 82.3139 339.728V299.739H73.7144C72.5677 299.739 71.4657 299.279 70.6385 298.457C69.8113 297.635 69.3229 296.514 69.2753 295.328C69.2277 294.142 69.6247 292.983 70.3832 292.092C71.1417 291.202 72.2032 290.65 73.3458 290.551C73.4687 290.54 73.5915 290.535 73.7144 290.535H110.467C111.646 290.534 112.777 291.019 113.611 291.881C114.445 292.744 114.914 293.914 114.915 295.134Z" fill="#3F3D56"/>
<path d="M421.851 295.134C421.851 296.067 421.578 296.977 421.068 297.745C420.558 298.513 419.835 299.104 418.995 299.437C418.596 299.595 418.177 299.692 417.751 299.724C417.638 299.734 417.521 299.739 417.408 299.739H408.814V342.907C408.686 343.082 408.552 343.257 408.419 343.432C406.397 346.108 404.314 348.731 402.169 351.301C401.485 350.902 400.915 350.32 400.52 349.617C400.125 348.914 399.919 348.114 399.922 347.3V299.739H380.655C380.087 299.741 379.523 299.628 378.997 299.406C378.334 299.131 377.744 298.695 377.279 298.134C376.814 297.573 376.486 296.904 376.325 296.184V296.178C376.086 295.132 376.213 294.032 376.683 293.073C376.678 293.068 376.678 293.068 376.683 293.068C376.886 292.646 377.152 292.26 377.471 291.923C377.886 291.484 378.381 291.134 378.928 290.896C379.475 290.657 380.062 290.535 380.655 290.535H417.408C418.586 290.534 419.716 291.019 420.549 291.881C421.383 292.743 421.851 293.913 421.851 295.133L421.851 295.134Z" fill="#3F3D56"/>
<path d="M421.558 206.458C419.728 206.458 417.917 206.831 416.227 207.556C414.536 208.281 413.001 209.343 411.707 210.682C410.414 212.021 409.387 213.611 408.687 215.361C407.987 217.111 407.627 218.986 407.627 220.88V220.88C407.627 224.225 408.751 227.467 410.806 230.049C412.861 232.631 415.718 234.393 418.89 235.034V258.622H427.782V206.458H421.558Z" fill="#3F3D56"/>
<path d="M178.339 259.119C177.452 258.58 176.462 258.249 175.438 258.149C174.415 258.049 173.382 258.183 172.414 258.541C171.445 258.898 170.564 259.472 169.833 260.22C169.102 260.969 168.538 261.874 168.181 262.873L152.119 263.521L149.955 271.266L172.789 272.477C174.449 272.986 176.232 272.847 177.8 272.086C179.368 271.326 180.611 269.996 181.295 268.35C181.98 266.703 182.056 264.854 181.512 263.153C180.967 261.451 179.838 260.016 178.339 259.119H178.339Z" fill="#9E616A"/>
<path d="M165.147 273.312L148.648 273.099L146.56 273.07L112.992 272.632C112.992 272.632 103.877 263.629 95.9395 254.36L97.052 246.029C98.1372 237.853 102.055 230.364 108.075 224.956C119.444 232.82 126.036 248.386 126.036 248.386L137.09 253.506C144.869 253.867 152.45 256.165 159.188 260.206L162.823 262.386L165.147 273.312Z" fill="#B5FBD6"/>
<path d="M216.984 422.783H276.495C272.436 423.397 268.339 423.883 264.205 424.24H229.275C225.139 423.885 221.042 423.399 216.984 422.783Z" fill="#CCCCCC"/>
<path d="M228.948 391.767C230.099 381.006 236.394 370.331 246.246 366.698C242.486 377.81 242.643 389.941 246.691 400.944C248.266 405.182 250.445 409.725 249.07 414.037C248.215 416.72 246.064 418.794 243.646 420.105C241.229 421.416 238.535 422.062 235.876 422.696L235.357 423.153C230.994 413.313 227.796 402.528 228.948 391.767Z" fill="#CCCCCC"/>
<path d="M246.348 366.9C240.671 373.665 237.197 382.11 236.42 391.036C236.22 392.954 236.313 394.893 236.696 396.782C237.127 398.609 238.022 400.283 239.289 401.631C240.446 402.912 241.773 404.084 242.609 405.634C243.025 406.434 243.274 407.316 243.338 408.222C243.402 409.129 243.281 410.039 242.981 410.893C242.288 413.042 240.891 414.805 239.467 416.48C237.886 418.339 236.215 420.245 235.564 422.69C235.485 422.987 235.046 422.843 235.125 422.547C236.257 418.292 240.2 415.83 242.046 411.987C242.907 410.193 243.251 408.12 242.398 406.251C241.652 404.617 240.285 403.408 239.102 402.121C237.848 400.825 236.919 399.231 236.396 397.478C235.922 395.615 235.757 393.683 235.908 391.764C236.183 387.437 237.113 383.182 238.664 379.154C240.41 374.547 242.904 370.283 246.039 366.546C246.233 366.315 246.541 366.67 246.348 366.9H246.348Z" fill="white"/>
<path d="M236.507 388.147C235.078 387.808 233.812 386.955 232.934 385.74C232.057 384.524 231.626 383.026 231.717 381.511C231.721 381.449 231.749 381.392 231.793 381.351C231.838 381.309 231.896 381.287 231.956 381.29C232.015 381.292 232.072 381.318 232.113 381.363C232.155 381.407 232.178 381.467 232.178 381.529C232.09 382.939 232.492 384.335 233.311 385.465C234.131 386.595 235.313 387.385 236.645 387.691C236.935 387.758 236.795 388.213 236.507 388.147H236.507Z" fill="white"/>
<path d="M238.619 401.061C241.171 399.436 243.037 396.874 243.846 393.887C243.925 393.591 244.365 393.735 244.285 394.031C243.438 397.137 241.491 399.799 238.832 401.485C238.579 401.645 238.367 401.221 238.619 401.061Z" fill="white"/>
<path d="M240.843 374.993C241.369 375.243 241.948 375.354 242.526 375.315C243.104 375.277 243.664 375.091 244.155 374.773C244.406 374.609 244.618 375.033 244.368 375.196C243.823 375.545 243.205 375.75 242.566 375.794C241.928 375.837 241.288 375.719 240.704 375.448C240.647 375.427 240.6 375.385 240.572 375.329C240.544 375.273 240.537 375.209 240.554 375.149C240.572 375.088 240.613 375.038 240.667 375.009C240.722 374.98 240.785 374.974 240.843 374.993L240.843 374.993Z" fill="white"/>
<path d="M276.662 385.469C276.508 385.576 276.354 385.683 276.199 385.794C274.133 387.242 272.184 388.861 270.372 390.635C270.229 390.77 270.087 390.909 269.949 391.048C265.626 395.372 262.116 400.488 259.597 406.138C258.596 408.388 257.763 410.712 257.103 413.092C256.192 416.38 255.457 420.019 253.605 422.723C253.415 423.007 253.208 423.279 252.986 423.537L235.936 423.773C235.897 423.753 235.858 423.738 235.819 423.718L235.139 423.76C235.164 423.635 235.194 423.505 235.219 423.38C235.234 423.307 235.253 423.235 235.267 423.162C235.278 423.114 235.289 423.065 235.296 423.021C235.3 423.004 235.304 422.988 235.308 422.976C235.315 422.932 235.326 422.891 235.333 422.851C235.495 422.128 235.662 421.405 235.834 420.681C235.834 420.677 235.834 420.677 235.838 420.673C237.099 415.148 238.989 409.798 241.468 404.734C241.544 404.584 241.62 404.43 241.703 404.28C242.852 402.037 244.177 399.896 245.663 397.877C246.48 396.774 247.351 395.715 248.271 394.703C250.655 392.094 253.421 389.889 256.466 388.17C262.538 384.743 269.601 383.364 276.162 385.315C276.33 385.365 276.494 385.415 276.662 385.469Z" fill="#CCCCCC"/>
<path d="M276.625 385.694C268.158 387.557 260.473 392.135 254.662 398.777C253.386 400.184 252.333 401.791 251.541 403.537C250.822 405.264 250.563 407.159 250.791 409.025C250.97 410.769 251.348 412.531 251.114 414.29C250.981 415.189 250.666 416.048 250.19 416.811C249.715 417.575 249.088 418.226 248.352 418.721C246.55 420.005 244.409 420.542 242.298 420.992C239.954 421.491 237.511 421.971 235.569 423.518C235.334 423.705 235.067 423.316 235.302 423.129C238.68 420.438 243.26 420.93 246.969 419.011C248.7 418.116 250.181 416.676 250.586 414.652C250.941 412.882 250.552 411.064 250.357 409.3C250.109 407.483 250.294 405.631 250.897 403.906C251.601 402.123 252.592 400.477 253.83 399.039C256.565 395.756 259.782 392.938 263.363 390.688C267.437 388.098 271.908 386.248 276.584 385.219C276.873 385.155 276.913 385.631 276.625 385.694H276.625Z" fill="white"/>
<path d="M256.412 396.524C255.468 395.364 254.953 393.893 254.959 392.376C254.965 390.859 255.493 389.393 256.446 388.241C256.64 388.009 256.998 388.309 256.804 388.542C255.914 389.613 255.423 390.979 255.42 392.392C255.417 393.804 255.902 395.172 256.787 396.247C256.979 396.481 256.603 396.757 256.412 396.524Z" fill="white"/>
<path d="M250.589 408.153C253.572 408.445 256.552 407.563 258.934 405.682C259.17 405.496 259.437 405.884 259.202 406.071C256.719 408.023 253.616 408.935 250.513 408.623C250.217 408.593 250.295 408.123 250.589 408.153V408.153Z" fill="white"/>
<path d="M267.525 388.724C267.8 389.252 268.197 389.701 268.681 390.031C269.165 390.36 269.72 390.56 270.297 390.613C270.593 390.639 270.515 391.109 270.221 391.083C269.584 391.022 268.97 390.801 268.435 390.438C267.9 390.075 267.458 389.581 267.149 389.001C267.116 388.949 267.103 388.885 267.113 388.824C267.123 388.762 267.155 388.706 267.203 388.668C267.253 388.632 267.315 388.617 267.375 388.628C267.435 388.638 267.489 388.673 267.525 388.724Z" fill="white"/>
<path d="M285.504 400.461C288.499 400.461 290.926 397.948 290.926 394.848C290.926 391.748 288.499 389.234 285.504 389.234C282.51 389.234 280.082 391.748 280.082 394.848C280.082 397.948 282.51 400.461 285.504 400.461Z" fill="#CCCCCC"/>
<path d="M303.207 416.855C302.875 416.956 302.537 417.057 302.199 417.152C299.133 418.042 296.045 418.856 292.934 419.595C292.576 418.846 292.384 418.025 292.372 417.19C292.359 416.355 292.527 415.527 292.863 414.768C293.199 414.009 293.695 413.336 294.313 412.801C294.932 412.265 295.658 411.878 296.44 411.67C297.221 411.462 298.037 411.437 298.829 411.596C299.621 411.756 300.368 412.097 301.017 412.594C301.665 413.09 302.198 413.731 302.577 414.468C302.956 415.205 303.172 416.021 303.207 416.855Z" fill="#CCCCCC"/>
<path d="M334.187 404.804C333.772 405.006 333.358 405.207 332.943 405.403C332.493 405.626 332.037 405.838 331.587 406.05C331.08 406.288 330.578 406.521 330.071 406.754C328.167 407.634 326.243 408.482 324.313 409.298C324.287 409.256 324.262 409.208 324.236 409.16C323.56 407.849 323.414 406.313 323.83 404.89C324.247 403.468 325.191 402.274 326.456 401.571C327.721 400.868 329.204 400.713 330.58 401.14C331.955 401.568 333.111 402.542 333.793 403.851C333.95 404.157 334.081 404.476 334.187 404.804Z" fill="#CCCCCC"/>
<path d="M304.629 386.683C307.624 386.683 310.051 384.17 310.051 381.069C310.051 377.969 307.624 375.456 304.629 375.456C301.635 375.456 299.207 377.969 299.207 381.069C299.207 384.17 301.635 386.683 304.629 386.683Z" fill="#CCCCCC"/>
<path d="M254.89 73.502C222.995 82.1875 187.656 87.4708 151.722 88.9175C146.456 89.2145 141.177 89.1774 135.915 88.8063C124.352 87.7994 114.447 84.0369 103.416 81.9808C98.1131 80.9952 92.2061 80.2745 86.8672 79.2093C88.1008 77.6248 89.3566 76.0598 90.6346 74.5142C102.147 75.521 113.838 78.8172 125.488 80.3486C145.293 82.9559 167.482 80.0466 182.496 72.8714C189.78 69.3898 195.359 65.0444 202.618 61.5469C203.605 61.0222 204.674 60.6831 205.776 60.5453C208.074 60.3281 210.091 61.2872 211.734 62.1457C223.912 68.5101 241.592 73.6822 258.003 70.8365C259.226 71.8274 256.902 72.9562 254.89 73.502Z" fill="white"/>
<path d="M327.511 95.8991C327.661 95.8708 327.811 95.8486 327.961 95.8218C327.331 95.4173 326.737 94.9543 326.188 94.4385L327.511 95.8991Z" fill="white"/>
<path d="M425.75 108.456C418.896 109.023 412.006 109.445 405.08 109.722C399.814 110.016 394.535 109.979 389.273 109.611C377.71 108.599 367.805 104.842 356.774 102.785C346.665 100.904 334.38 99.998 327.961 95.8222C344.551 92.8494 361.74 98.9011 378.846 101.153C392.684 102.915 406.711 102.198 420.314 99.0336C422.207 102.118 424.02 105.258 425.75 108.456Z" fill="white"/>
<path d="M271.46 187.947C255.403 130.891 245.952 72.0618 245.952 12.6332V8.32617H240.617V12.6331C240.617 72.0618 231.166 130.89 215.109 187.947C214.333 190.709 213.94 193.572 213.941 196.448V196.448C213.941 197.536 214.148 198.613 214.551 199.619C214.953 200.624 215.542 201.537 216.285 202.306C217.028 203.076 217.911 203.686 218.882 204.102C219.853 204.519 220.893 204.733 221.944 204.733H232.614C232.614 206.184 232.89 207.62 233.426 208.96C233.963 210.301 234.749 211.518 235.739 212.544C236.73 213.57 237.907 214.383 239.201 214.939C240.496 215.494 241.883 215.779 243.284 215.779C244.686 215.779 246.073 215.494 247.368 214.939C248.662 214.383 249.839 213.57 250.829 212.544C251.82 211.518 252.606 210.301 253.142 208.96C253.679 207.62 253.955 206.184 253.955 204.733H262.258V228.542C261.087 228.577 259.973 229.075 259.145 229.934C258.318 230.792 257.839 231.946 257.807 233.159C257.775 234.372 258.193 235.551 258.975 236.454C259.757 237.358 260.843 237.918 262.011 238.018C263.178 238.119 264.339 237.753 265.254 236.996C266.17 236.239 266.77 235.147 266.933 233.946C267.095 232.745 266.808 231.525 266.129 230.536C265.45 229.547 264.431 228.865 263.282 228.63V204.733H264.625C266.747 204.733 268.783 203.86 270.284 202.306C271.784 200.753 272.628 198.645 272.628 196.448V196.448C272.629 193.571 272.236 190.709 271.46 187.947Z" fill="white"/>
</g>
<defs>
<clipPath id="clip0_241_141">
<rect width="452" height="425" fill="white"/>
</clipPath>
</defs>
</svg>
