<svg width="451" height="369" viewBox="0 0 451 369" fill="none" xmlns="http://www.w3.org/2000/svg">
<g clip-path="url(#clip0_241_890)">
<path d="M451 198.128V353.143C450.996 357.347 449.438 361.377 446.67 364.35C443.902 367.323 440.149 368.995 436.234 369H325.508L326.536 367.602L449.699 199.903L451 198.128Z" fill="#F2F2F2"/>
<path d="M176.243 143.524H49.0981C48.0563 143.524 47.0571 143.969 46.3204 144.76C45.5838 145.551 45.1699 146.624 45.1699 147.742C45.1699 148.861 45.5838 149.934 46.3204 150.725C47.0571 151.516 48.0563 151.961 49.0981 151.961H176.243C177.285 151.961 178.284 151.516 179.021 150.725C179.757 149.934 180.171 148.861 180.171 147.742C180.171 146.624 179.757 145.551 179.021 144.76C178.284 143.969 177.285 143.524 176.243 143.524Z" fill="#E6E6E6"/>
<path d="M88.5196 119.872H49.0981C48.0563 119.872 47.0571 120.316 46.3204 121.107C45.5838 121.898 45.1699 122.971 45.1699 124.09C45.1699 125.209 45.5838 126.282 46.3204 127.073C47.0571 127.864 48.0563 128.308 49.0981 128.308H88.5197C89.5615 128.308 90.5606 127.864 91.2973 127.073C92.034 126.282 92.4478 125.209 92.4478 124.09C92.4478 122.971 92.034 121.898 91.2973 121.107C90.5606 120.316 89.5615 119.872 88.5197 119.872H88.5196Z" fill="#E6E6E6"/>
<path d="M436.233 0H14.7665C10.8516 0.00506201 7.09845 1.67735 4.33022 4.65006C1.56198 7.62277 0.00471383 11.6532 0 15.8572V353.143C0.00471383 357.347 1.56198 361.377 4.33022 364.35C7.09845 367.323 10.8516 368.995 14.7665 369H436.233C440.148 368.995 443.902 367.323 446.67 364.35C449.438 361.377 450.995 357.347 451 353.143V15.8572C450.995 11.6532 449.438 7.62277 446.67 4.65006C443.902 1.67735 440.148 0.00506201 436.233 0ZM449.698 353.143C449.698 355.042 449.35 356.922 448.673 358.676C447.997 360.43 447.005 362.025 445.755 363.367C444.504 364.71 443.02 365.775 441.386 366.502C439.753 367.228 438.002 367.602 436.233 367.602H14.7665C11.1954 367.602 7.77054 366.079 5.24538 363.367C2.72021 360.656 1.30159 356.978 1.30159 353.143V110.194C1.30159 81.3392 11.9756 53.6665 30.9754 33.2633C49.9752 12.8601 75.7445 1.39773 102.614 1.39773H436.233C438.002 1.39773 439.753 1.77174 441.386 2.49839C443.02 3.22505 444.504 4.29013 445.755 5.63282C447.005 6.97551 447.997 8.5695 448.673 10.3238C449.35 12.0781 449.698 13.9584 449.698 15.8572V353.143Z" fill="#E6E6E6"/>
<path d="M409.928 60.9888H41.1039C40.9313 60.9888 40.7658 60.9152 40.6437 60.7841C40.5217 60.653 40.4531 60.4753 40.4531 60.2899C40.4531 60.1046 40.5217 59.9268 40.6437 59.7958C40.7658 59.6647 40.9313 59.5911 41.1039 59.5911H409.928C410.101 59.5911 410.267 59.6647 410.389 59.7958C410.511 59.9268 410.579 60.1046 410.579 60.2899C410.579 60.4753 410.511 60.653 410.389 60.7841C410.267 60.9152 410.101 60.9888 409.928 60.9888Z" fill="#E6E6E6"/>
<path d="M59.5572 40.0086C62.5967 40.0086 65.0607 37.3036 65.0607 33.9669C65.0607 30.6301 62.5967 27.9252 59.5572 27.9252C56.5177 27.9252 54.0537 30.6301 54.0537 33.9669C54.0537 37.3036 56.5177 40.0086 59.5572 40.0086Z" fill="#E6E6E6"/>
<path d="M78.5689 40.0086C81.6084 40.0086 84.0724 37.3036 84.0724 33.9669C84.0724 30.6301 81.6084 27.9252 78.5689 27.9252C75.5294 27.9252 73.0654 30.6301 73.0654 33.9669C73.0654 37.3036 75.5294 40.0086 78.5689 40.0086Z" fill="#E6E6E6"/>
<path d="M97.5816 40.0086C100.621 40.0086 103.085 37.3036 103.085 33.9669C103.085 30.6301 100.621 27.9252 97.5816 27.9252C94.5421 27.9252 92.0781 30.6301 92.0781 33.9669C92.0781 37.3036 94.5421 40.0086 97.5816 40.0086Z" fill="#E6E6E6"/>
<path d="M119.261 38.7421C119.174 38.7422 119.088 38.7237 119.008 38.6876C118.928 38.6515 118.856 38.5985 118.796 38.5319L115.082 34.4554C114.963 34.3249 114.896 34.1494 114.896 33.9668C114.896 33.7841 114.963 33.6086 115.082 33.4781L118.796 29.402C118.855 29.3353 118.926 29.282 119.005 29.2451C119.084 29.2082 119.169 29.1884 119.255 29.187C119.341 29.1855 119.426 29.2024 119.506 29.2365C119.586 29.2707 119.659 29.3216 119.72 29.3861C119.782 29.4507 119.831 29.5277 119.864 29.6128C119.898 29.6978 119.916 29.7891 119.916 29.8814C119.917 29.9738 119.9 30.0653 119.867 30.1508C119.835 30.2362 119.787 30.3139 119.726 30.3793L116.458 33.9668L119.726 37.5546C119.816 37.6529 119.876 37.7775 119.9 37.9126C119.924 38.0477 119.91 38.1874 119.861 38.3142C119.811 38.441 119.728 38.5493 119.621 38.6254C119.514 38.7015 119.389 38.7421 119.261 38.7421Z" fill="#E6E6E6"/>
<path d="M125.5 38.7421C125.372 38.7421 125.247 38.7015 125.14 38.6254C125.034 38.5493 124.95 38.4411 124.901 38.3143C124.851 38.1875 124.837 38.0477 124.861 37.9126C124.885 37.7775 124.946 37.6529 125.035 37.5546L128.303 33.9668L125.035 30.3793C124.916 30.2464 124.851 30.0685 124.854 29.8844C124.857 29.7002 124.927 29.5247 125.05 29.3959C125.172 29.2671 125.337 29.1955 125.509 29.1967C125.68 29.1978 125.844 29.2716 125.966 29.402L129.679 33.4781C129.798 33.6087 129.864 33.7841 129.864 33.9668C129.864 34.1495 129.798 34.3249 129.679 34.4554L125.966 38.5319C125.905 38.5986 125.833 38.6515 125.753 38.6876C125.673 38.7237 125.587 38.7422 125.5 38.7421Z" fill="#E6E6E6"/>
<path d="M377.039 28.6246H370.134C369.947 28.6246 369.762 28.6641 369.589 28.741C369.416 28.8179 369.259 28.9306 369.126 29.0728C368.994 29.2149 368.889 29.3837 368.817 29.5694C368.746 29.7551 368.709 29.9541 368.709 30.1551V37.5771C368.709 37.7781 368.746 37.9771 368.817 38.1628C368.889 38.3486 368.994 38.5173 369.126 38.6594C369.259 38.8016 369.416 38.9143 369.589 38.9912C369.762 39.0681 369.947 39.1076 370.134 39.1076H377.039C377.418 39.108 377.781 38.9471 378.05 38.6602C378.318 38.3732 378.47 37.9838 378.471 37.5771V30.1551C378.47 29.7485 378.318 29.359 378.05 29.0721C377.781 28.7851 377.418 28.6242 377.039 28.6246Z" fill="#E6E6E6"/>
<path d="M360.117 28.6246H353.212C353.025 28.6246 352.84 28.6641 352.667 28.741C352.494 28.8179 352.337 28.9306 352.204 29.0728C352.072 29.2149 351.967 29.3837 351.895 29.5694C351.824 29.7551 351.787 29.9541 351.787 30.1551V37.5771C351.787 37.7781 351.824 37.9771 351.895 38.1628C351.967 38.3486 352.072 38.5173 352.204 38.6594C352.337 38.8016 352.494 38.9143 352.667 38.9912C352.84 39.0681 353.025 39.1076 353.212 39.1076H360.117C360.496 39.108 360.859 38.9471 361.128 38.6602C361.396 38.3732 361.548 37.9838 361.549 37.5771V30.1551C361.548 29.7485 361.396 29.359 361.128 29.0721C360.859 28.7851 360.496 28.6242 360.117 28.6246Z" fill="#E6E6E6"/>
<path d="M392.982 28.9741H386.078C385.89 28.9741 385.705 29.0136 385.532 29.0905C385.359 29.1674 385.202 29.2801 385.07 29.4223C384.937 29.5644 384.832 29.7331 384.761 29.9189C384.689 30.1046 384.652 30.3036 384.652 30.5046V37.9266C384.652 38.1276 384.689 38.3266 384.761 38.5123C384.832 38.698 384.937 38.8668 385.07 39.0089C385.202 39.1511 385.359 39.2638 385.532 39.3407C385.705 39.4176 385.89 39.4571 386.078 39.4571H392.982C393.361 39.4575 393.725 39.2966 393.993 39.0096C394.261 38.7227 394.413 38.3332 394.414 37.9266V30.5046C394.413 30.0979 394.261 29.7085 393.993 29.4215C393.725 29.1346 393.361 28.9737 392.982 28.9741Z" fill="#E6E6E6"/>
<path d="M253.113 31.7975H197.919C197.458 31.7975 197.016 31.9941 196.691 32.344C196.365 32.694 196.182 33.1686 196.182 33.6635C196.182 34.1583 196.365 34.6329 196.691 34.9829C197.016 35.3328 197.458 35.5294 197.919 35.5294H253.113C253.574 35.5294 254.016 35.3328 254.342 34.9829C254.668 34.6329 254.851 34.1583 254.851 33.6635C254.851 33.1686 254.668 32.694 254.342 32.344C254.016 31.9941 253.574 31.7975 253.113 31.7975Z" fill="#E6E6E6"/>
<path d="M105.173 286.846L72.1664 285.726C67.5886 285.57 62.4407 285.578 59.1755 288.119C55.4697 291.002 56.0308 296.11 59.1076 299.424C62.1845 302.737 67.0974 304.63 71.9194 306.169C97.5371 314.346 125.889 316.006 153.418 314.156C180.946 312.306 207.909 307.075 234.738 301.863C237.282 301.368 240.166 300.657 241.204 298.755C242.208 296.916 240.894 294.697 238.854 293.508C236.814 292.319 234.227 291.919 231.732 291.565C186.536 285.187 140.852 283.787 95.3907 287.388" fill="#B5FBD6"/>
<path d="M164.475 259.586V251.2C158.807 251.286 138.527 251.137 133.237 251.2C132.843 280.511 130.429 274.769 152.792 274.883C153.819 274.887 154.804 275.328 155.53 276.11C156.256 276.891 156.664 277.949 156.665 279.053V279.179C156.665 280.284 156.256 281.345 155.528 282.126C154.8 282.908 153.813 283.347 152.783 283.347H133.237V291.734H164.475C164.519 291.706 164.443 283.636 164.475 283.347C165.796 259.051 163.182 267.79 144.192 266.815C143.343 266.769 142.542 266.373 141.957 265.71C141.371 265.047 141.045 264.168 141.046 263.255V263.15C141.046 262.205 141.396 261.298 142.018 260.63C142.641 259.961 143.485 259.586 144.365 259.586H164.475Z" fill="#3F3D56"/>
<path d="M202.871 259.586V251.2C197.204 251.286 176.924 251.137 171.633 251.2C171.236 280.765 168.784 274.667 191.777 274.887C192.651 274.897 193.486 275.277 194.102 275.944C194.717 276.611 195.062 277.512 195.062 278.451C195.062 278.892 195.062 279.343 195.062 279.784C195.062 280.252 194.976 280.716 194.809 281.148C194.642 281.58 194.398 281.973 194.09 282.304C193.781 282.635 193.415 282.897 193.013 283.076C192.61 283.255 192.179 283.347 191.743 283.347H171.633V291.734H202.871C202.915 291.706 202.84 283.636 202.871 283.347C204.192 259.051 201.579 267.79 182.589 266.815C181.739 266.769 180.939 266.373 180.353 265.71C179.767 265.047 179.441 264.168 179.443 263.255V263.15C179.443 262.205 179.792 261.298 180.415 260.63C181.037 259.961 181.881 259.586 182.761 259.586H202.871Z" fill="#3F3D56"/>
<path d="M124.126 259.586V251.2H92.8877C92.8655 258.68 92.9036 278.478 92.8876 286.143C86.7644 297.275 121.55 289.568 124.127 291.737C124.126 291.734 124.126 283.347 124.126 283.347C100.358 283.214 99.7608 287.992 100.525 264.876C100.571 263.457 101.129 262.112 102.08 261.125C103.03 260.138 104.301 259.586 105.624 259.585C112.495 259.586 124.126 259.586 124.126 259.586Z" fill="#3F3D56"/>
<path d="M185.871 186.675L152.865 185.741C148.287 185.612 143.139 185.618 139.874 187.736C136.168 190.139 136.729 194.398 139.806 197.16C142.883 199.922 147.796 201.5 152.618 202.783C178.235 209.599 206.587 210.982 234.116 209.44C261.645 207.898 288.607 203.538 315.436 199.193C317.981 198.78 320.865 198.188 321.902 196.602C322.906 195.069 321.593 193.22 319.552 192.229C317.512 191.238 314.926 190.904 312.431 190.609C267.158 185.29 221.546 184.125 176.089 187.127" fill="#B5FBD6"/>
<path d="M180.095 149.864C179.563 162.812 183.994 166.887 168.705 165.238C167.672 157.514 172.911 146.795 160.897 149.516C163.303 155.12 154.192 197.629 168.703 190.047C169.518 177.275 164.147 171.673 180.095 173.627C181.374 181.522 175.405 193.14 187.904 190.397C185.497 184.791 194.609 142.286 180.095 149.864Z" fill="#3F3D56"/>
<path d="M260.142 149.864C261.214 150.575 250.321 162.95 250.086 163.964C249.76 163.098 239.363 150.991 240.618 149.865C226.152 142.188 235.168 184.944 232.806 190.4C232.809 190.398 240.618 190.398 240.618 190.398V163.843C251.595 179.742 249.557 177.066 260.142 163.062L260.142 190.398C274.609 198.078 265.593 155.316 267.954 149.862C267.952 149.864 260.142 149.864 260.142 149.864Z" fill="#3F3D56"/>
<path d="M225.649 149.864H194.411C192.575 161.621 198.644 157.678 206.126 158.25L206.125 190.398H213.935V158.251C221.382 157.707 227.507 161.569 225.649 149.864Z" fill="#3F3D56"/>
<path d="M282.268 182.012C280.465 171.384 280.465 160.493 282.268 149.864H274.459C274.504 155.178 274.445 176.618 274.449 186.423C274.449 187.481 274.84 188.496 275.536 189.245C276.233 189.994 277.177 190.415 278.163 190.415C286.031 190.427 301.051 190.364 305.697 190.399L305.697 182.012H282.268Z" fill="#3F3D56"/>
<path d="M82.769 183.41H51.0271C49.4737 183.41 47.9839 184.072 46.8854 185.252C45.787 186.432 45.1699 188.031 45.1699 189.7C45.1699 191.368 45.787 192.968 46.8854 194.147C47.9839 195.327 49.4737 195.989 51.0271 195.989H82.769C84.3224 195.989 85.8122 195.327 86.9106 194.147C88.009 192.968 88.6261 191.368 88.6261 189.7C88.6261 188.031 88.009 186.432 86.9106 185.252C85.8122 184.072 84.3224 183.41 82.769 183.41H82.769Z" fill="#E6E6E6"/>
<path d="M370.558 361.709L364.114 361.709L361.049 335.019L370.559 335.02L370.558 361.709Z" fill="#FFB6B6"/>
<path d="M370.783 368.928L350.969 368.927V368.658C350.969 366.461 351.782 364.355 353.228 362.802C354.674 361.249 356.636 360.376 358.681 360.376H358.682L362.301 357.427L369.054 360.376L370.784 360.376L370.783 368.928Z" fill="#2F2E41"/>
<path d="M393.335 361.709L386.891 361.709L383.826 335.019L393.336 335.02L393.335 361.709Z" fill="#FFB6B6"/>
<path d="M393.561 368.928L373.746 368.927V368.658C373.746 366.461 374.559 364.355 376.005 362.802C377.452 361.249 379.413 360.376 381.459 360.376H381.459L385.078 357.427L391.831 360.376L393.561 360.376L393.561 368.928Z" fill="#2F2E41"/>
<path d="M354.514 216.284C354.514 216.284 348.314 236.732 349.459 239.423C350.603 242.114 352.555 240.018 350.603 242.114C348.65 244.211 346.946 241.982 348.775 245.543C350.603 249.103 353.373 278.413 354.591 279.832C355.809 281.251 357.484 281.289 355.996 282.667C354.508 284.046 352.555 281.251 354.508 284.046C356.46 286.842 361.641 351.33 361.641 351.33H371.761C371.761 351.33 374.282 348.21 372.855 346.179C371.428 344.148 372.98 343.366 372.855 342.01C372.73 340.654 373.204 337.731 373.293 336.397C373.381 335.063 375.091 303.287 370.982 284.931L378.475 249.979L382.221 292.223C382.221 292.223 378.046 327.656 382.221 339.047C382.221 339.047 378.855 342.057 380.348 343.802C381.841 345.546 383.143 344.148 381.841 345.546C380.539 346.944 383.793 351.836 383.793 351.836L394.857 351.137L401.119 284.931C401.119 284.931 402.174 278.026 401.119 276.843C400.063 275.66 400.063 279.853 400.063 275.66V270.069C400.063 270.069 404.782 235.681 404.7 233.656C404.619 231.631 396.809 216.955 396.809 216.955L354.514 216.284Z" fill="#2F2E41"/>
<path d="M387.234 133.586L371.079 132.393L366.245 140.578L354.604 145.661V185.981C355.815 189.885 356.441 193.971 356.458 198.086C356.414 206.119 354.491 215.582 355.157 217.654C361.665 237.921 397.458 217.654 397.458 217.654L396.808 195.989L397.691 147.027L390.377 140.763L387.234 133.586Z" fill="#E6E6E6"/>
<path d="M353.857 225.037L352.743 212.289L345.873 211.956L347.497 225.39C347.081 226.05 346.844 226.821 346.813 227.618C346.783 228.415 346.959 229.205 347.324 229.899C347.689 230.594 348.227 231.166 348.877 231.55C349.528 231.934 350.265 232.116 351.007 232.075C351.748 232.034 352.464 231.772 353.075 231.318C353.685 230.863 354.165 230.235 354.461 229.504C354.758 228.773 354.858 227.967 354.751 227.178C354.644 226.389 354.335 225.648 353.857 225.037L353.857 225.037Z" fill="#FFB6B6"/>
<path d="M357.238 144.585L357.048 144.62C355.276 144.943 353.605 145.724 352.178 146.896C350.751 148.069 349.611 149.597 348.858 151.349C346.89 155.918 340.502 185.954 343.302 190.484C345.475 193.997 344.947 193.312 343.926 195.962C342.905 198.612 341.26 195.784 342.608 199.99C343.956 204.196 345.437 203.595 344.186 205.22C342.935 206.845 341.651 206.527 342.868 209.248C344.085 211.97 343.887 212.889 344.117 213.914C344.347 214.938 344.147 222.147 344.147 222.147C344.147 222.147 351.486 221.55 355.138 223.424C355.138 223.424 353.1 216.143 354.252 214.978C355.404 213.812 356.786 213.671 355.8 211.975C354.813 210.278 352.575 210.206 355.011 209.359C357.446 208.512 356.662 193.316 356.662 193.316C360.673 182.036 359.088 163.483 357.238 144.585Z" fill="#E6E6E6"/>
<path d="M401.49 225.947L402.003 213.155L408.849 212.45L407.858 225.954C408.305 226.591 408.578 227.349 408.646 228.143C408.714 228.937 408.574 229.736 408.243 230.449C407.911 231.163 407.401 231.763 406.769 232.182C406.138 232.601 405.41 232.822 404.667 232.822C403.924 232.821 403.197 232.598 402.566 232.177C401.935 231.756 401.426 231.155 401.096 230.441C400.766 229.727 400.628 228.928 400.697 228.134C400.767 227.34 401.041 226.583 401.49 225.947Z" fill="#FFB6B6"/>
<path d="M394.332 145.781L394.524 145.805C396.308 146.031 398.015 146.721 399.495 147.815C400.975 148.908 402.185 150.373 403.019 152.082C405.199 156.538 412.095 186.724 410.406 190.866C408.832 194.729 408.897 193.779 410.041 196.37C411.185 198.962 412.695 196.048 411.547 200.322C410.398 204.595 408.891 204.076 410.216 205.631C411.542 207.187 412.809 206.799 411.722 209.583C410.635 212.367 410.875 213.274 410.694 214.31C410.512 215.346 411.051 222.535 411.051 222.535C411.051 222.535 403.693 222.335 400.134 224.405C400.134 224.405 401.827 217.023 400.622 215.922C399.416 214.82 398.029 214.754 398.935 213.006C399.84 211.258 402.072 211.066 399.6 210.351C397.128 209.637 397.197 194.418 397.197 194.418L394.332 145.781Z" fill="#E6E6E6"/>
<path d="M379.554 129.83C386.513 129.83 392.155 123.771 392.155 116.298C392.155 108.825 386.513 102.767 379.554 102.767C372.595 102.767 366.953 108.825 366.953 116.298C366.953 123.771 372.595 129.83 379.554 129.83Z" fill="#FFB6B6"/>
<path d="M388.324 127.881C390.076 126.408 390.246 123.601 391.742 121.831C394.242 118.872 395.417 115.689 394.107 112.183C392.949 109.082 393.195 105.27 390.7 103.274C391.925 102.798 392.214 101.809 391.132 101.79C390.403 101.778 387.685 103.275 388.993 101.41C390.301 99.5461 387.825 100.282 387.989 99.5188C388.152 98.7557 389.203 98.3331 389.666 98.938C389.275 98.5091 388.798 98.1818 388.271 97.9811C387.744 97.7804 387.182 97.7115 386.626 97.7797C386.071 97.8479 385.537 98.0515 385.067 98.3747C384.596 98.698 384.2 99.1325 383.909 99.6451C382.435 97.2733 380.871 95.6412 378.615 97.1464C376.401 98.6247 376.429 100.452 374.048 100.013C372.928 99.8065 372.822 102.078 372.057 102.98C371.704 103.46 371.244 103.837 370.72 104.076C370.196 104.316 369.625 104.412 369.058 104.354C367.941 104.127 367.088 102.633 367.713 101.615L365.082 108.061L364.022 106.664C362.337 107.843 362.89 110.92 364.586 112.081C366.282 113.242 368.486 112.994 370.44 112.479C372.791 111.86 375.218 111.644 377.632 111.839C381.32 112.398 383.888 117.132 382.522 120.853C383.939 119.359 386.56 120.599 387.294 122.58C388.028 124.562 387.49 126.794 386.946 128.844" fill="#2F2E41"/>
</g>
<defs>
<clipPath id="clip0_241_890">
<rect width="451" height="369" fill="white"/>
</clipPath>
</defs>
</svg>
