<svg width="30" height="28" viewBox="0 0 30 28" fill="none" xmlns="http://www.w3.org/2000/svg">
<path d="M27.1248 4.99096C27.0378 5.07496 26.9293 5.13992 26.8267 5.21496C27.8855 6.20392 28.893 7.14472 29.8862 8.07208C29.1017 8.80456 28.3612 9.49672 27.5993 10.209C26.6312 9.2884 25.632 8.34088 24.6555 7.41352C24.2048 7.83912 23.7816 8.24008 23.3535 8.6444C24.1548 9.38248 25.0001 10.1609 25.8323 10.9281C25.0252 11.6818 24.2847 12.374 23.5336 13.074C22.7359 12.3169 21.9073 11.5318 21.0607 10.7287C20.9606 10.8094 20.8878 10.862 20.8235 10.9225C18.7953 12.8287 16.7708 14.7372 14.7379 16.639C14.5829 16.7846 14.5674 16.8865 14.6592 17.0724C15.7526 19.29 15.681 21.4953 14.4315 23.6255C13.3215 25.5183 11.5914 26.6842 9.34392 27.1569C9.01365 27.2263 8.67862 27.2678 8.34477 27.3215C7.96323 27.3215 7.5805 27.3215 7.19777 27.3215C7.09523 27.3025 6.99388 27.2767 6.89015 27.2633C3.86527 26.8422 1.75369 25.3122 0.635308 22.6321C0.376577 22.0105 0.290731 21.325 0.125 20.6687C0.125 20.3092 0.125 19.9497 0.125 19.5902C0.305038 18.8946 0.418308 18.1778 0.673462 17.5081C1.78946 14.5826 5.21258 12.6294 8.49739 12.9788C9.40473 13.0762 10.2668 13.2946 11.0787 13.6766C11.2802 13.7706 11.3637 13.6833 11.4793 13.5735C12.6418 12.4782 13.8067 11.3839 14.9704 10.2897C18.3566 7.1044 21.7439 3.92024 25.1277 0.732719C25.8335 0.0696795 26.6455 -0.18792 27.6196 0.0976795C29.0897 0.527759 29.699 2.32872 28.7177 3.44088C28.2313 3.99304 27.6613 4.47912 27.1248 4.99096ZM28.0345 1.59064C27.7806 1.13144 27.2786 0.88728 26.7087 0.94552C26.3128 0.986959 26.0398 1.2188 25.7727 1.46968C21.0905 5.87688 16.4048 10.2807 11.7262 14.6924C11.539 14.8682 11.4007 14.9074 11.1658 14.782C10.2429 14.287 9.25808 13.9566 8.18858 13.9028C4.76665 13.7314 1.84431 15.9132 1.24577 19.0783C0.646038 22.2513 2.78385 25.3615 6.11754 26.1668C10.2346 27.1614 14.2741 24.2986 14.3993 20.3002C14.4375 19.0884 14.0822 17.9751 13.4562 16.9313C13.3346 16.7297 13.3417 16.6042 13.5325 16.4262C15.9577 14.1604 18.3721 11.8846 20.7901 9.61096C20.8628 9.54152 20.9415 9.47768 21.0595 9.37464C21.9025 10.1766 22.7347 10.9684 23.5288 11.7244C23.8078 11.4679 24.0689 11.2282 24.3932 10.9303C23.5598 10.1665 22.7121 9.3892 21.9204 8.66344C22.8373 7.7988 23.7422 6.9476 24.6961 6.04824C25.6654 6.97 26.6634 7.91752 27.6256 8.83256C27.8867 8.59176 28.1466 8.35208 28.4149 8.10456C27.4288 7.1828 26.4273 6.2476 25.3995 5.28664C25.514 5.17352 25.5927 5.094 25.6726 5.01784C26.3915 4.338 27.1212 3.66824 27.8271 2.97608C28.2289 2.58184 28.2885 2.04872 28.0345 1.59064ZM7.78438 23.4799C5.81469 23.4777 4.19673 21.95 4.20985 20.1031C4.22177 18.2854 5.85642 16.7599 7.77485 16.779C9.74215 16.7969 11.3291 18.2966 11.3339 20.1401C11.3387 21.9522 9.71235 23.4822 7.78438 23.4799ZM7.77365 17.7343C6.36435 17.7388 5.22808 18.8095 5.22569 20.1345C5.22331 21.446 6.39535 22.5391 7.78558 22.5246C9.19727 22.5089 10.3276 21.4314 10.318 20.1098C10.3085 18.8062 9.15554 17.7298 7.77365 17.7343Z" fill="black"/>
</svg>
